<?xml version="1.0" encoding="UTF-8" standalone="no"?>
<!-- Created with Inkscape (http://www.inkscape.org/) -->

<svg
   width="11.111422mm"
   height="9.4139919mm"
   viewBox="0 0 11.111422 9.4139919"
   version="1.1"
   id="svg1"
   inkscape:version="1.4.3 (0d15f75042, 2025-12-25)"
   sodipodi:docname="white.svg"
   xml:space="preserve"
   inkscape:export-filename="white.pdf"
   inkscape:export-xdpi="96.099998"
   inkscape:export-ydpi="96.099998"
   xmlns:inkscape="http://www.inkscape.org/namespaces/inkscape"
   xmlns:sodipodi="http://sodipodi.sourceforge.net/DTD/sodipodi-0.dtd"
   xmlns="http://www.w3.org/2000/svg"
   xmlns:svg="http://www.w3.org/2000/svg"><sodipodi:namedview
     id="namedview1"
     pagecolor="#ffffff"
     bordercolor="#999999"
     borderopacity="1"
     inkscape:showpageshadow="2"
     inkscape:pageopacity="0"
     inkscape:pagecheckerboard="0"
     inkscape:deskcolor="#d1d1d1"
     inkscape:document-units="mm"
     inkscape:zoom="0.73071672"
     inkscape:cx="240.85941"
     inkscape:cy="520.03737"
     inkscape:window-width="1280"
     inkscape:window-height="1371"
     inkscape:window-x="20"
     inkscape:window-y="20"
     inkscape:window-maximized="0"
     inkscape:current-layer="svg1"
     showgrid="false"
     inkscape:export-bgcolor="#ffffff00"
     showguides="false"><inkscape:grid
       id="grid155"
       units="mm"
       originx="-21.494492"
       originy="-354.58093"
       spacingx="0.99999998"
       spacingy="0.99999996"
       empcolor="#0099e5"
       empopacity="0.30196078"
       color="#0099e5"
       opacity="0.14901961"
       empspacing="11"
       enabled="true"
       visible="false" /><inkscape:page
       x="0"
       y="0"
       width="11.111422"
       height="9.4139919"
       id="page2"
       margin="0"
       bleed="0" /></sodipodi:namedview><defs
     id="defs1"><clipPath
       clipPathUnits="userSpaceOnUse"
       id="clipPath54"><rect
         style="opacity:0.483893;fill:#ffffff;fill-opacity:1;fill-rule:nonzero;stroke:none;stroke-width:1.28213;stroke-dasharray:5.12851, 1.28213;stroke-opacity:0"
         id="rect54"
         width="24.695736"
         height="25.931837"
         x="367.40271"
         y="85.151337"
         rx="10.950765"
         ry="8.5611029" /></clipPath></defs><g
     id="g71"
     transform="matrix(0.79629629,0,0,0.79629629,-19.885214,-277.06739)"><path
       style="fill:#0055d4"
       d="m 482.25843,122.32161 c 0.4419,-0.55912 0.44427,-1.11185 0.0107,-2.49145 -0.67445,-2.1459 -0.24114,-2.91502 0.51535,-0.91476 l 0.53718,1.42037 0.45147,-1.35217 c 0.24831,-0.7437 0.64377,-1.35218 0.8788,-1.35218 0.23504,0 0.007,1.16164 -0.50705,2.58143 -0.5139,1.41978 -0.93448,2.63674 -0.93461,2.70435 -1.3e-4,0.0676 -0.34212,0.12293 -0.75997,0.12293 -0.61328,0 -0.65026,-0.13851 -0.19183,-0.71852 z M 367.72336,120.3088 c -0.73817,-1.18298 -0.75112,-1.44618 -0.12843,-2.61111 0.84761,-1.58572 3.34878,-1.8656 3.61671,-0.40472 0.14098,0.76871 0.038,0.80862 -0.75102,0.29118 -1.27805,-0.83811 -2.44324,-0.22933 -2.44324,1.27652 0,1.50585 1.16519,2.11463 2.44324,1.27652 0.78892,-0.51734 0.89231,-0.47739 0.75343,0.29118 -0.27205,1.50552 -2.52479,1.42836 -3.49069,-0.11957 z m 4.3523,0.92843 c -0.67029,-0.70384 -0.25735,-1.63472 0.85525,-1.92794 0.64208,-0.16922 1.05676,-0.49567 0.92152,-0.72545 -0.13524,-0.22977 -0.55522,-0.29313 -0.93328,-0.14079 -0.37807,0.15234 -0.6874,0.0174 -0.6874,-0.29998 0,-0.33934 0.53036,-0.51289 1.28772,-0.42138 1.11798,0.13507 1.30688,0.39864 1.43305,1.99946 0.13723,1.74106 0.0698,1.84388 -1.20967,1.84388 -0.74526,0 -1.49549,-0.14751 -1.66719,-0.3278 z m 2.02914,-1.16089 c 0,-0.24599 -0.31487,-0.32038 -0.69971,-0.16531 -0.38483,0.15507 -0.58099,0.48363 -0.4359,0.73014 0.30346,0.51559 1.13561,0.10169 1.13561,-0.56483 z m 1.95486,-1.33859 c 0.0762,-2.63307 0.0945,-2.67596 0.26632,-0.62428 0.10149,1.21166 0.40655,2.48393 0.67793,2.82728 0.3643,0.46094 0.29462,0.62428 -0.26633,0.62428 -0.6222,0 -0.74492,-0.51182 -0.67792,-2.82728 z m 1.90284,2.25608 c -1.27347,-1.33721 -0.13782,-3.6292 1.62189,-3.27335 1.27895,0.25863 1.19102,3.54616 -0.10004,3.74046 -0.5181,0.078 -1.20293,-0.13223 -1.52185,-0.46711 z m 1.64487,-2.22046 c -0.7352,-0.77199 -0.80485,-0.77199 -1.08697,0 -0.16579,0.45367 -0.16579,1.19603 0,1.6497 0.28212,0.772 0.35177,0.772 1.08697,0 0.73519,-0.772 0.73519,-0.8777 0,-1.6497 z m 2.05979,0.94778 c -0.0626,-1.86533 0.043,-2.08805 0.98343,-2.07409 0.9487,0.0141 0.97602,0.0776 0.27439,0.63792 -0.42856,0.34225 -0.8711,1.2756 -0.98343,2.07409 -0.16062,1.14182 -0.21921,1.00562 -0.27439,-0.63792 z m 2.27115,-0.12293 c 0,-1.08174 0.21072,-1.9668 0.46827,-1.9668 0.25754,0 0.46826,0.88506 0.46826,1.9668 0,1.08174 -0.21072,1.96681 -0.46826,1.96681 -0.25755,0 -0.46827,-0.88507 -0.46827,-1.96681 z m 1.96671,1.37677 c -0.30906,-0.32453 -0.56192,-0.96123 -0.56192,-1.4149 0,-1.87662 2.86099,-2.60915 3.18973,-0.8167 0.11715,0.63877 -0.15765,0.85483 -1.08723,0.85483 -0.7895,0 -1.17109,0.22456 -1.0444,0.61463 0.10978,0.33804 0.67717,0.5413 1.26086,0.45169 0.66983,-0.10284 0.94582,0.0332 0.7483,0.36877 -0.41697,0.70843 -1.80593,0.6761 -2.50534,-0.0583 z m 1.77939,-2.0853 c 0,-0.51898 -0.89864,-0.73702 -1.16593,-0.28289 -0.16177,0.27485 0.0344,0.49972 0.43591,0.49972 0.40151,0 0.73002,-0.0976 0.73002,-0.21683 z m 1.59334,2.10618 c -0.2295,-0.38992 -0.0172,-0.48188 0.67429,-0.29201 0.5551,0.15243 1.11248,0.10181 1.23861,-0.11249 0.12613,-0.21431 -0.18973,-0.50472 -0.70193,-0.64536 -1.43582,-0.39427 -1.2372,-2.31459 0.2394,-2.31459 0.64386,0 1.17066,0.24494 1.17066,0.54431 0,0.29937 -0.30933,0.41966 -0.6874,0.26732 -0.37807,-0.15234 -0.81194,-0.0654 -0.96416,0.19325 -0.15222,0.25862 0.01,0.47022 0.35961,0.47022 0.92321,0 1.72684,0.99429 1.43939,1.78087 -0.30051,0.82231 -2.30217,0.90074 -2.76847,0.10848 z m 70.22509,-0.68707 c -0.73818,-1.18298 -0.75112,-1.44618 -0.12843,-2.61111 0.84761,-1.58572 3.34878,-1.8656 3.61671,-0.40472 0.14098,0.76871 0.038,0.80862 -0.75102,0.29118 -1.27805,-0.83811 -2.44324,-0.22933 -2.44324,1.27652 0,1.50585 1.16519,2.11463 2.44324,1.27652 0.78892,-0.51734 0.89231,-0.47739 0.75343,0.29118 -0.27205,1.50552 -2.5248,1.42836 -3.49069,-0.11957 z m 4.36094,0.57859 c -0.28745,-0.78658 0.51618,-1.78087 1.43939,-1.78087 0.35001,0 0.51183,-0.2116 0.35961,-0.47022 -0.15222,-0.25863 -0.63877,-0.3367 -1.08122,-0.17349 -0.62188,0.2294 -0.68291,0.15825 -0.26888,-0.31343 1.04142,-1.18645 2.26402,-0.39009 2.41932,1.57586 0.1378,1.7444 0.0736,1.83979 -1.23762,1.83979 -0.76063,0 -1.4944,-0.30494 -1.6306,-0.67764 z m 1.78636,-0.30577 c 0.15917,-0.27043 -0.0515,-0.4917 -0.46826,-0.4917 -0.41672,0 -0.62743,0.22127 -0.46826,0.4917 0.15917,0.27044 0.36989,0.49171 0.46826,0.49171 0.0984,0 0.30909,-0.22127 0.46826,-0.49171 z m 2.17735,-0.86047 c -0.0626,-1.86533 0.043,-2.08805 0.98343,-2.07409 0.9487,0.0141 0.97602,0.0776 0.27439,0.63792 -0.42856,0.34225 -0.87111,1.2756 -0.98343,2.07409 -0.16063,1.14182 -0.21921,1.00562 -0.27439,-0.63792 z m 2.27115,-0.82932 c 0,-1.50453 0.21072,-2.73551 0.46826,-2.73551 0.25754,0 0.46826,0.31651 0.46826,0.70335 0,0.38684 0.47412,0.77406 1.05359,0.86048 0.86343,0.12876 1.05359,0.46774 1.05359,1.87807 0,1.58218 -0.12271,1.73338 -1.52185,1.87503 l -1.52185,0.15408 z m 2.28032,-0.10833 c -0.63598,-0.80467 -1.3438,-0.40341 -1.3438,0.76179 0,1.3286 0.60807,1.68154 1.26694,0.73538 0.4318,-0.62009 0.45244,-1.02197 0.0769,-1.49717 z m 2.02769,2.19149 c -1.17616,-1.23504 -0.30066,-3.34357 1.38832,-3.34357 0.45452,0 1.05194,0.44253 1.32761,0.9834 1.01171,1.98503 -1.22342,3.92738 -2.71593,2.36017 z m 2.24766,-1.37677 c 0,-1.12374 -1.35154,-1.70123 -1.70674,-0.72926 -0.14658,0.4011 -0.14658,1.05743 0,1.45852 0.3552,0.97198 1.70674,0.39449 1.70674,-0.72926 z m 1.40479,-0.73755 c 0,-1.48739 0.21072,-2.70435 0.46827,-2.70435 0.25754,0 0.46826,0.3319 0.46826,0.73755 0,0.40565 0.39889,0.73755 0.88642,0.73755 0.97184,0 1.45489,0.91124 1.45489,2.74457 0,1.77664 -0.85458,1.43529 -1.02392,-0.40899 -0.0807,-0.87892 -0.35745,-1.59803 -0.615,-1.59803 -0.25754,0 -0.53429,0.71911 -0.61499,1.59803 -0.24268,2.64287 -1.02393,1.79875 -1.02393,-1.10633 z m 7.4922,1.72095 c -0.65168,-1.27862 0.1536,-2.9502 1.42127,-2.9502 0.50603,0 0.92005,-0.3319 0.92005,-0.73755 0,-0.40565 0.21072,-0.73755 0.46826,-0.73755 0.25755,0 0.46826,1.21696 0.46826,2.70435 0,2.66991 -0.0177,2.70436 -1.38831,2.70436 -0.90907,0 -1.56133,-0.33947 -1.88953,-0.98341 z m 2.34132,-0.9834 c 0,-1.2572 -0.70469,-1.62334 -1.40907,-0.73213 -0.45937,0.5812 -0.45937,0.88306 0,1.46427 0.70438,0.89121 1.40907,0.52506 1.40907,-0.73214 z m 1.40479,0 c 0,-1.82142 0.0952,-1.96569 1.28772,-1.95185 1.1009,0.0128 1.16883,0.0877 0.46826,0.51614 -0.48742,0.2981 -0.81946,1.08898 -0.81946,1.95185 0,0.79786 -0.21072,1.45067 -0.46826,1.45067 -0.25755,0 -0.46826,-0.88507 -0.46826,-1.96681 z m 2.65348,1.63901 c -0.67028,-0.70384 -0.25734,-1.63472 0.85525,-1.92794 0.64208,-0.16922 1.05677,-0.49567 0.92153,-0.72545 -0.13524,-0.22977 -0.55522,-0.29313 -0.93329,-0.14079 -0.37807,0.15234 -0.6874,0.0174 -0.6874,-0.29998 0,-0.33934 0.53037,-0.51289 1.28772,-0.42138 1.11798,0.13507 1.30688,0.39864 1.43306,1.99946 0.13723,1.74106 0.0698,1.84388 -1.20968,1.84388 -0.74526,0 -1.49549,-0.14751 -1.66719,-0.3278 z m 2.02914,-1.16089 c 0,-0.24599 -0.31486,-0.32038 -0.6997,-0.16531 -0.38484,0.15507 -0.581,0.48363 -0.43591,0.73014 0.30346,0.51559 1.13561,0.10169 1.13561,-0.56483 z m 1.87305,0.11192 c 0,-0.75722 -0.1931,-1.58696 -0.42911,-1.84387 -0.26138,-0.28453 -0.20883,-0.67672 0.13445,-1.00336 0.41019,-0.39029 0.72317,-0.35684 1.14997,0.12293 0.34605,0.38898 0.3869,0.65916 0.0997,0.65916 -0.67024,0 -0.61414,2.12803 0.0752,2.85187 0.43705,0.45892 0.38502,0.59004 -0.23413,0.59004 -0.55969,0 -0.79605,-0.40879 -0.79605,-1.37677 z m 1.88826,0.4232 c -1.02483,-2.01076 1.19287,-3.97331 2.70072,-2.39 0.91087,0.95646 0.65355,1.37676 -0.84288,1.37676 -1.44791,0 -1.90057,0.67842 -0.75945,1.13822 0.35493,0.14302 0.90807,7.5e-4 1.22919,-0.31616 0.45242,-0.4465 0.53607,-0.41018 0.37158,0.16134 -0.33599,1.1674 -2.10939,1.187 -2.69916,0.0298 z m 2.10461,-1.97516 c -0.15222,-0.25863 -0.58609,-0.34559 -0.96416,-0.19325 -0.96795,0.39003 -0.85388,0.66347 0.27677,0.66347 0.53028,0 0.83961,-0.2116 0.68739,-0.47022 z m 1.84596,2.41247 c -0.23521,-0.39963 -0.0365,-0.47235 0.65821,-0.24084 0.56184,0.18725 0.99516,0.11756 0.99516,-0.16004 0,-0.27043 -0.43342,-0.63614 -0.96315,-0.81269 -1.16803,-0.38928 -1.02898,-1.87303 0.19881,-2.12132 0.4751,-0.0961 1.10484,0.0922 1.39941,0.41839 0.41307,0.45741 0.29458,0.51662 -0.518,0.25883 -0.60243,-0.19112 -1.05359,-0.1237 -1.05359,0.15745 0,0.27044 0.43342,0.63615 0.96316,0.8127 0.56669,0.18886 0.90203,0.65789 0.81467,1.13946 -0.17561,0.96801 -2.01028,1.37107 -2.49468,0.54806 z m 75.63887,-2.1881 v -2.70435 l 1.75599,0.0737 c 1.41248,0.0593 1.50408,0.11374 0.46826,0.27851 -0.87536,0.13924 -1.28772,0.49883 -1.28772,1.12292 0,0.62409 0.41236,0.98368 1.28772,1.12292 l 1.28772,0.20484 -1.28772,0.0737 c -1.04269,0.0597 -1.28772,0.30758 -1.28772,1.30292 0,0.67609 -0.21072,1.22926 -0.46827,1.22926 -0.25754,0 -0.46826,-1.21696 -0.46826,-2.70436 z m 3.92404,1.99035 c -0.36616,-1.00197 0.17956,-1.7445 1.28212,-1.7445 0.51509,0 0.81852,-0.20049 0.67429,-0.44554 -0.14423,-0.24504 -0.71641,-0.32082 -1.27151,-0.16839 -0.69145,0.18987 -0.90379,0.0979 -0.67429,-0.29201 0.49396,-0.83926 2.47599,-0.69186 2.80506,0.20861 0.15633,0.42777 0.28423,1.31283 0.28423,1.9668 0,0.99609 -0.23034,1.18904 -1.41948,1.18904 -0.80899,0 -1.53171,-0.30708 -1.68042,-0.71401 z m 2.05617,-0.66924 c 0.11406,-0.35931 -0.10001,-0.4692 -0.55606,-0.28543 -0.40784,0.16433 -0.74152,0.51482 -0.74152,0.77886 0,0.64628 1.06426,0.24159 1.29758,-0.49343 z m 1.75943,0.91415 c -0.35293,-0.59964 -0.45429,-3.90291 -0.1302,-4.24322 0.16854,-0.17697 0.64759,0.0365 1.06457,0.47432 0.41698,0.43785 0.53237,0.79609 0.25643,0.79609 -0.27594,0 -0.50171,0.63807 -0.50171,1.41793 0,1.30419 0.12208,1.40532 1.52185,1.26064 2.10758,-0.21783 2.12009,-0.22754 0.93653,-0.72709 -1.50632,-0.63577 -1.41971,-2.44318 0.11706,-2.44318 0.64386,0 1.17066,0.24494 1.17066,0.54431 0,0.29937 -0.30933,0.41966 -0.6874,0.26732 -0.37807,-0.15234 -0.81194,-0.0654 -0.96416,0.19325 -0.15222,0.25862 0.0259,0.47022 0.39593,0.47022 0.91826,0 1.74559,1.13435 1.3355,1.8311 -0.35959,0.61095 -4.17001,0.74456 -4.51506,0.15831 z m 90.12725,-2.26641 v -2.73551 l 1.52185,0.15408 c 1.34617,0.13629 1.52186,0.32437 1.52186,1.62918 0,1.15538 -0.22836,1.50916 -1.05359,1.63223 -0.67709,0.10097 -1.05359,0.49632 -1.05359,1.10632 0,0.52206 -0.21072,0.94921 -0.46827,0.94921 -0.25754,0 -0.46826,-1.23098 -0.46826,-2.73551 z m 2.10718,-0.95225 c 0,-0.4958 -0.26339,-0.99364 -0.58533,-1.10633 -0.3707,-0.12975 -0.58532,0.2759 -0.58532,1.10633 0,0.83043 0.21462,1.23608 0.58532,1.10633 0.32194,-0.11268 0.58533,-0.61053 0.58533,-1.10633 z m 2.17735,1.84388 c -0.0626,-1.86533 0.043,-2.08805 0.98343,-2.07409 0.9487,0.0141 0.97602,0.0776 0.27439,0.63792 -0.42856,0.34225 -0.87111,1.2756 -0.98343,2.07409 -0.16063,1.14182 -0.21921,1.00562 -0.27439,-0.63792 z m 2.3648,1.25384 c -1.17617,-1.23504 -0.30067,-3.34357 1.38831,-3.34357 0.45452,0 1.05195,0.44253 1.32761,0.9834 1.01172,1.98503 -1.22341,3.92738 -2.71592,2.36017 z m 2.24766,-1.37677 c 0,-1.12374 -1.35154,-1.70123 -1.70674,-0.72926 -0.14658,0.4011 -0.14658,1.05743 0,1.45852 0.3552,0.97198 1.70674,0.39449 1.70674,-0.72926 z m 1.6864,1.55577 c -0.37909,-0.64408 -0.50517,-3.94342 -0.16437,-4.30128 0.16853,-0.17697 0.64759,0.0365 1.06456,0.47432 0.41698,0.43785 0.53237,0.79609 0.25643,0.79609 -0.70453,0 -0.62902,2.81431 0.0836,3.11626 0.3604,0.1527 0.28105,0.26293 -0.20649,0.28683 -0.43551,0.0213 -0.90069,-0.14615 -1.03375,-0.37222 z m 2.15335,-0.179 c -0.30905,-0.32453 -0.56191,-0.96123 -0.56191,-1.4149 0,-1.87662 2.86099,-2.60915 3.18973,-0.8167 0.11715,0.63877 -0.15765,0.85483 -1.08724,0.85483 -0.78949,0 -1.17108,0.22456 -1.04439,0.61463 0.10978,0.33804 0.67717,0.5413 1.26086,0.45169 0.66983,-0.10284 0.94582,0.0332 0.7483,0.36877 -0.41697,0.70843 -1.80593,0.6761 -2.50535,-0.0583 z m 1.7794,-2.0853 c 0,-0.51898 -0.89865,-0.73702 -1.16593,-0.28289 -0.16177,0.27485 0.0344,0.49972 0.4359,0.49972 0.40152,0 0.73003,-0.0976 0.73003,-0.21683 z m 2.00059,0.70853 c 0,-1.21696 0.0913,-1.7148 0.20293,-1.10632 0.11161,0.60848 0.11161,1.60417 0,2.21265 -0.11161,0.60848 -0.20293,0.11063 -0.20293,-1.10633 z m 1.27725,0 c 0,-1.84137 0.0864,-1.9668 1.35469,-1.9668 1.4296,0 1.92315,0.70435 1.92315,2.74457 0,1.77664 -0.85458,1.43529 -1.02392,-0.40899 -0.0807,-0.87892 -0.35746,-1.59803 -0.615,-1.59803 -0.25754,0 -0.53429,0.71911 -0.615,1.59803 -0.20903,2.27647 -1.02392,1.98298 -1.02392,-0.36878 z m -309.05334,-2.9502 c 0,-0.27044 0.21072,-0.4917 0.46827,-0.4917 0.25754,0 0.46826,0.22126 0.46826,0.4917 0,0.27043 -0.21072,0.4917 -0.46826,0.4917 -0.25755,0 -0.46827,-0.22127 -0.46827,-0.4917 z m 307.41442,0 c -0.15917,-0.27044 -0.0662,-0.4917 0.2065,-0.4917 0.27274,0 0.4959,0.22126 0.4959,0.4917 0,0.27043 -0.0929,0.4917 -0.2065,0.4917 -0.11357,0 -0.33673,-0.22127 -0.4959,-0.4917 z m -314.4243,-10.46305 c -2.70171,-1.43551 -4.14371,-5.88299 -2.59536,-8.004675 0.68389,-0.937121 0.71188,-0.933927 1.5411,0.175857 0.55815,0.746998 1.11593,1.020964 1.64478,0.807869 0.9654,-0.389004 0.9998,-1.048338 0.16853,-3.230309 -0.66808,-1.753616 -0.51292,-2.923951 0.62726,-4.731206 1.02433,-1.623635 1.67281,-1.369044 2.81312,1.104413 0.56055,1.215906 1.48247,2.598815 2.0487,3.073129 1.72159,1.442106 2.6348,3.202318 2.6348,5.078542 0,2.06581 -1.58208,4.8179 -3.29189,5.72638 -1.48188,0.78737 -4.10916,0.78737 -5.59104,0 z m 6.03734,-2.35899 c 2.23806,-2.35009 1.88961,-5.19832 -0.95786,-7.829392 -0.7317,-0.676088 -1.6412,-1.88065 -2.02113,-2.676804 -0.60726,-1.272548 -0.73093,-1.337687 -1.02287,-0.538804 -0.18266,0.499811 -0.0844,1.881079 0.21826,3.069485 0.61046,2.396682 0.23013,3.693969 -1.342,4.577465 -0.65264,0.36676 -1.20212,0.36498 -1.86232,-0.006 -1.57007,-0.882331 -1.20023,1.61426 0.50428,3.40409 1.10942,1.16495 1.85504,1.51292 3.24182,1.51292 1.38678,0 2.1324,-0.34797 3.24182,-1.51292 z m 97.95149,0.86111 c -4.35245,-1.32522 -6.92436,-2.35984 -7.25807,-2.91974 -0.69304,-1.16283 1.97479,-6.635001 4.26345,-8.745055 2.52936,-2.331963 6.54093,-4.250132 7.52687,-3.59904 0.8708,0.575056 4.86836,14.423575 4.66523,16.161495 -0.1775,1.51869 -1.77276,1.36299 -9.19748,-0.89766 z m 7.72785,-0.12595 c -0.15633,-0.42778 -0.28423,-0.98094 -0.28423,-1.22926 0,-0.24831 -0.39067,-0.45148 -0.86815,-0.45148 -0.47748,0 -1.42571,-0.5426 -2.10718,-1.20578 -1.50575,-1.46533 -1.6246,-3.555608 -0.30251,-5.320502 0.51509,-0.687605 0.93653,-1.605476 0.93653,-2.039711 0,-0.721257 -0.15183,-0.723025 -1.75599,-0.02045 -2.3208,1.016445 -4.71238,3.452344 -5.76747,5.874353 l -0.85341,1.95907 2.14279,0.65608 c 1.52021,0.46546 2.28817,0.50342 2.64317,0.13066 0.71262,-0.7483 1.15762,-0.65109 1.33232,0.29103 0.0852,0.45922 0.97095,1.08208 2.02446,1.42354 2.64622,0.8577 3.19308,0.84478 2.85967,-0.0676 z m -8.24469,-4.07904 c 0,-0.619796 1.37457,-1.730934 1.70808,-1.380731 0.47953,0.50353 -0.23612,1.812231 -0.99099,1.812231 -0.3944,0 -0.71709,-0.19418 -0.71709,-0.4315 z m -3.35696,-0.524948 c 0.69755,-2.101133 4.04784,-5.714777 6.41291,-6.916995 1.37605,-0.699476 1.95877,-1.269341 1.78479,-1.745417 -0.37029,-1.013262 -1.02161,-0.882626 -3.729,0.747931 -2.59182,1.560947 -4.92602,4.303446 -6.03514,7.090812 -0.88127,2.214747 -0.87637,2.271817 0.19496,2.271817 0.565,0 1.06652,-0.52956 1.37148,-1.448148 z m 10.63233,0.587668 c -0.17436,-0.47326 -0.43396,-1.468956 -0.57689,-2.212653 -0.28978,-1.507786 -0.83215,-1.754385 -1.26337,-0.574411 -0.45824,1.253927 -0.33303,2.050945 0.45162,2.874864 0.98539,1.03472 1.78361,0.98425 1.38864,-0.0878 z m 92.60437,5.30569 c -3.55931,-2.27886 -3.84803,-6.629751 -0.66641,-10.042452 1.03789,-1.113268 2.21594,-2.853868 2.61791,-3.868001 0.40196,-1.014132 0.9359,-1.843877 1.18654,-1.843877 0.25063,0 0.78457,0.829745 1.18653,1.843877 0.40197,1.014133 1.58002,2.754733 2.61791,3.868001 1.36366,1.462708 1.95623,2.565639 2.13645,3.976508 0.46762,3.660844 -2.37772,7.025764 -5.94089,7.025764 -0.90141,0 -2.31353,-0.43192 -3.13804,-0.95982 z m 6.37985,-2.02453 c 2.21774,-2.32874 2.03306,-4.630125 -0.59628,-7.43069 -1.1204,-1.19336 -2.16176,-2.490374 -2.31413,-2.882251 -0.22561,-0.580225 -0.3791,-0.54196 -0.82674,0.206111 -0.30234,0.50524 -1.36816,1.804196 -2.36849,2.88657 -1.46543,1.585604 -1.8188,2.33121 -1.8188,3.83764 0,2.63671 2.1606,4.89554 4.68263,4.89554 1.38677,0 2.13239,-0.34797 3.24181,-1.51292 z m 93.32305,2.65737 c -0.83593,-0.35271 -2.91234,-4.79506 -2.91234,-6.23075 0,-0.651969 0.30915,-1.454803 0.68699,-1.784081 0.37784,-0.329277 1.42297,-2.226848 2.32251,-4.216824 1.7894,-3.958566 3.18188,-5.138917 6.06244,-5.138917 2.73005,0 5.62241,3.376311 6.90022,8.054767 0.8786,3.216845 -2.18972,7.103645 -7.01698,8.888745 -1.9947,0.73764 -4.83163,0.93813 -6.04284,0.42706 z m 5.65781,-1.85443 c 4.10533,-1.53764 6.74174,-4.55411 5.97385,-6.835037 -0.27713,-0.8232 -0.3522,-0.799128 -0.81193,0.260368 -0.95498,2.200869 -6.17761,5.244329 -9.08846,5.296269 -1.52566,0.0272 -1.97287,0.48271 -1.30437,1.32852 0.6593,0.83417 2.92798,0.81243 5.23091,-0.0501 z m -0.37555,-3.65206 c 2.90773,-1.394889 4.91676,-3.620905 4.91676,-5.447815 0,-1.859314 -1.08086,-4.213726 -2.12817,-4.635729 -1.33227,-0.536832 -3.71983,-0.328261 -4.72768,0.412998 -0.53725,0.395139 -1.44738,2.039696 -2.02252,3.654572 -0.57513,1.614876 -1.44676,3.317262 -1.93695,3.78308 -0.89016,0.845908 -1.16891,2.205874 -0.57908,2.825234 0.62217,0.65331 4.64851,0.28513 6.47764,-0.59234 z m -1.17066,-3.99687 c -0.51509,-0.540871 -0.93652,-1.391639 -0.93652,-1.890596 0,-1.997179 3.23387,-3.367598 4.58897,-1.94467 0.83971,0.881738 0.67805,3.080792 -0.29442,4.004909 -1.138,1.081425 -2.21858,1.026835 -3.35803,-0.169643 z m 2.80958,-1.720953 c 0,-0.888992 -0.25159,-1.229251 -0.90889,-1.229251 -0.49989,0 -1.04536,0.231861 -1.21215,0.515246 -0.50162,0.852256 0.15515,1.943257 1.16982,1.943257 0.70246,0 0.95122,-0.32147 0.95122,-1.229252 z"
       id="path45"
       clip-path="url(#clipPath54)"
       transform="matrix(0.56503192,0,0,0.53809831,-182.62213,299.99369)" /></g></svg>
