<?xml version="1.0" encoding="UTF-8" standalone="no"?>
<!-- Created with Inkscape (http://www.inkscape.org/) -->

<svg
   width="13.95388mm"
   height="11.822211mm"
   viewBox="0 0 13.95388 11.822211"
   version="1.1"
   id="svg1"
   inkscape:version="1.4.3 (0d15f75042, 2025-12-25)"
   sodipodi:docname="white.svg"
   xml:space="preserve"
   inkscape:export-filename="white.pdf"
   inkscape:export-xdpi="96.099998"
   inkscape:export-ydpi="96.099998"
   xmlns:inkscape="http://www.inkscape.org/namespaces/inkscape"
   xmlns:sodipodi="http://sodipodi.sourceforge.net/DTD/sodipodi-0.dtd"
   xmlns="http://www.w3.org/2000/svg"
   xmlns:svg="http://www.w3.org/2000/svg"><sodipodi:namedview
     id="namedview1"
     pagecolor="#ffffff"
     bordercolor="#999999"
     borderopacity="1"
     inkscape:showpageshadow="2"
     inkscape:pageopacity="0"
     inkscape:pagecheckerboard="0"
     inkscape:deskcolor="#d1d1d1"
     inkscape:document-units="mm"
     inkscape:zoom="0.73071672"
     inkscape:cx="628.1504"
     inkscape:cy="1005.8618"
     inkscape:window-width="2560"
     inkscape:window-height="1371"
     inkscape:window-x="0"
     inkscape:window-y="0"
     inkscape:window-maximized="1"
     inkscape:current-layer="svg1"
     showgrid="false"
     inkscape:export-bgcolor="#ffffff00"
     showguides="false"><inkscape:grid
       id="grid155"
       units="mm"
       originx="-124.89825"
       originy="-353.69458"
       spacingx="0.99999998"
       spacingy="0.99999996"
       empcolor="#0099e5"
       empopacity="0.30196078"
       color="#0099e5"
       opacity="0.14901961"
       empspacing="11"
       enabled="true"
       visible="false" /><inkscape:page
       x="0"
       y="-1.9905037e-37"
       width="13.95388"
       height="11.822211"
       id="page2"
       margin="0"
       bleed="0" /></sodipodi:namedview><defs
     id="defs1"><clipPath
       clipPathUnits="userSpaceOnUse"
       id="clipPath55"><path
         style="fill:#000000;stroke-width:0.999998"
         d="m 472.51605,108.0472 c 0.4419,-0.55912 0.44429,-1.11185 0.0108,-2.49145 -0.67444,-2.1459 -0.24115,-2.91502 0.51532,-0.91476 l 0.5372,1.42037 0.45149,-1.35217 c 0.24828,-0.7437 0.64377,-1.35218 0.87879,-1.35218 0.23502,0 0.007,1.16164 -0.50703,2.58143 -0.51392,1.41978 -0.93451,2.63674 -0.93465,2.70435 -10e-5,0.0676 -0.34212,0.12293 -0.75995,0.12293 -0.61328,0 -0.65027,-0.13851 -0.19185,-0.71852 z M 357.981,106.03439 c -0.73817,-1.18298 -0.75112,-1.44618 -0.12843,-2.61111 0.84761,-1.58572 3.34878,-1.8656 3.61671,-0.40472 0.14098,0.76871 0.038,0.80862 -0.75102,0.29118 -1.27805,-0.83811 -2.44324,-0.22933 -2.44324,1.27652 0,1.50585 1.16519,2.11463 2.44324,1.27652 0.78892,-0.51734 0.89231,-0.47739 0.75343,0.29118 -0.27205,1.50552 -2.52479,1.42836 -3.49069,-0.11957 z m 4.3523,0.92843 c -0.67029,-0.70384 -0.25735,-1.63472 0.85525,-1.92794 0.64208,-0.16922 1.05676,-0.49567 0.92152,-0.72545 -0.13524,-0.22977 -0.55522,-0.29313 -0.93328,-0.14079 -0.37807,0.15234 -0.6874,0.0174 -0.6874,-0.29998 0,-0.33934 0.53036,-0.51289 1.28772,-0.42138 1.11798,0.13507 1.30688,0.39864 1.43305,1.99946 0.13723,1.74106 0.0698,1.84388 -1.20967,1.84388 -0.74526,0 -1.49549,-0.14751 -1.66719,-0.3278 z m 2.02914,-1.16089 c 0,-0.24599 -0.31487,-0.32038 -0.69971,-0.16531 -0.38483,0.15507 -0.58099,0.48363 -0.4359,0.73014 0.30346,0.51559 1.13561,0.10169 1.13561,-0.56483 z m 1.95486,-1.33859 c 0.0762,-2.63307 0.0945,-2.67596 0.26632,-0.62428 0.10149,1.21166 0.40655,2.48393 0.67793,2.82728 0.3643,0.46094 0.29462,0.62428 -0.26633,0.62428 -0.6222,0 -0.74492,-0.51182 -0.67792,-2.82728 z m 1.90284,2.25608 c -1.27347,-1.33721 -0.13782,-3.6292 1.62189,-3.27335 1.27895,0.25863 1.19102,3.54616 -0.10004,3.74046 -0.5181,0.078 -1.20293,-0.13223 -1.52185,-0.46711 z m 1.64487,-2.22046 c -0.7352,-0.77199 -0.80485,-0.77199 -1.08697,0 -0.16579,0.45367 -0.16579,1.19603 0,1.6497 0.28212,0.772 0.35177,0.772 1.08697,0 0.73519,-0.772 0.73519,-0.8777 0,-1.6497 z m 2.05979,0.94778 c -0.0626,-1.86533 0.043,-2.08805 0.98343,-2.07409 0.9487,0.0141 0.97602,0.0776 0.27439,0.63792 -0.42856,0.34225 -0.8711,1.2756 -0.98343,2.07409 -0.16062,1.14182 -0.21921,1.00562 -0.27439,-0.63792 z m 2.27115,-0.12293 c 0,-1.08174 0.21072,-1.9668 0.46827,-1.9668 0.25754,0 0.46826,0.88506 0.46826,1.9668 0,1.08174 -0.21072,1.96681 -0.46826,1.96681 -0.25755,0 -0.46827,-0.88507 -0.46827,-1.96681 z m 1.96671,1.37677 c -0.30906,-0.32453 -0.56192,-0.96123 -0.56192,-1.4149 0,-1.87662 2.86099,-2.60915 3.18973,-0.8167 0.11715,0.63877 -0.15765,0.85483 -1.08723,0.85483 -0.7895,0 -1.17109,0.22456 -1.0444,0.61463 0.10978,0.33804 0.67717,0.5413 1.26086,0.45169 0.66983,-0.10284 0.94582,0.0332 0.7483,0.36877 -0.41697,0.70843 -1.80593,0.6761 -2.50534,-0.0583 z m 1.77939,-2.0853 c 0,-0.51898 -0.89864,-0.73702 -1.16593,-0.28289 -0.16177,0.27485 0.0344,0.49972 0.43591,0.49972 0.40151,0 0.73002,-0.0976 0.73002,-0.21683 z m 1.59334,2.10618 c -0.2295,-0.38992 -0.0172,-0.48188 0.67429,-0.29201 0.5551,0.15243 1.11248,0.10181 1.23861,-0.11249 0.12613,-0.21431 -0.18973,-0.50472 -0.70193,-0.64536 -1.43582,-0.39427 -1.2372,-2.31459 0.2394,-2.31459 0.64386,0 1.17066,0.24494 1.17066,0.54431 0,0.29937 -0.30933,0.41966 -0.6874,0.26732 -0.37807,-0.15234 -0.81194,-0.0654 -0.96416,0.19325 -0.15222,0.25862 0.01,0.47022 0.35961,0.47022 0.92321,0 1.72684,0.99429 1.43939,1.78087 -0.30051,0.82231 -2.30217,0.90074 -2.76847,0.10848 z m 70.22511,-0.68707 c -0.73822,-1.18298 -0.75114,-1.44618 -0.12844,-2.61111 0.8476,-1.58572 3.34878,-1.8656 3.61672,-0.40472 0.14094,0.76871 0.0379,0.80862 -0.75105,0.29118 -1.27803,-0.83811 -2.44321,-0.22933 -2.44321,1.27652 0,1.50585 1.16518,2.11463 2.44321,1.27652 0.78893,-0.51734 0.89232,-0.47739 0.75343,0.29118 -0.27206,1.50552 -2.52477,1.42836 -3.49066,-0.11957 z m 4.36093,0.57859 c -0.28747,-0.78658 0.51617,-1.78087 1.43939,-1.78087 0.34998,0 0.51181,-0.2116 0.35958,-0.47022 -0.15218,-0.25863 -0.63876,-0.3367 -1.08122,-0.17349 -0.62185,0.2294 -0.68291,0.15825 -0.26887,-0.31343 1.04141,-1.18645 2.26405,-0.39009 2.41932,1.57586 0.13781,1.7444 0.0736,1.83979 -1.23762,1.83979 -0.76064,0 -1.49441,-0.30494 -1.63058,-0.67764 z m 1.78633,-0.30577 c 0.15921,-0.27043 -0.0515,-0.4917 -0.46822,-0.4917 -0.41675,0 -0.62747,0.22127 -0.46826,0.4917 0.15916,0.27044 0.36988,0.49171 0.46826,0.49171 0.0984,0 0.30906,-0.22127 0.46822,-0.49171 z m 2.17737,-0.86047 c -0.0626,-1.86533 0.0431,-2.08805 0.98345,-2.07409 0.9487,0.0141 0.976,0.0776 0.27435,0.63792 -0.42855,0.34225 -0.87111,1.2756 -0.98339,2.07409 -0.16067,1.14182 -0.21925,1.00562 -0.27441,-0.63792 z m 2.27117,-0.82932 c 0,-1.50453 0.21072,-2.73551 0.46826,-2.73551 0.2575,0 0.46822,0.31651 0.46822,0.70335 0,0.38684 0.47416,0.77406 1.05359,0.86048 0.86343,0.12876 1.05359,0.46774 1.05359,1.87807 0,1.58218 -0.12268,1.73338 -1.52185,1.87503 l -1.52181,0.15408 z m 2.2803,-0.10833 c -0.636,-0.80467 -1.34382,-0.40341 -1.34382,0.76179 0,1.3286 0.60808,1.68154 1.26698,0.73538 0.43178,-0.62009 0.45243,-1.02197 0.0769,-1.49717 z m 2.02767,2.19149 c -1.17614,-1.23504 -0.30062,-3.34357 1.38835,-3.34357 0.4545,0 1.05191,0.44253 1.32762,0.9834 1.01168,1.98503 -1.22343,3.92738 -2.71597,2.36017 z m 2.24766,-1.37677 c 0,-1.12374 -1.3515,-1.70123 -1.70672,-0.72926 -0.14657,0.4011 -0.14657,1.05743 0,1.45852 0.35522,0.97198 1.70672,0.39449 1.70672,-0.72926 z m 1.40479,-0.73755 c 0,-1.48739 0.21072,-2.70435 0.46831,-2.70435 0.25754,0 0.46826,0.3319 0.46826,0.73755 0,0.40565 0.39887,0.73755 0.88642,0.73755 0.97183,0 1.45485,0.91124 1.45485,2.74457 0,1.77664 -0.85458,1.43529 -1.02391,-0.40899 -0.0807,-0.87892 -0.35742,-1.59803 -0.61501,-1.59803 -0.2575,0 -0.53429,0.71911 -0.61497,1.59803 -0.2427,2.64287 -1.02395,1.79875 -1.02395,-1.10633 z m 7.4922,1.72095 c -0.65168,-1.27862 0.15364,-2.9502 1.42127,-2.9502 0.50605,0 0.92009,-0.3319 0.92009,-0.73755 0,-0.40565 0.21072,-0.73755 0.46822,-0.73755 0.25759,0 0.46826,1.21696 0.46826,2.70435 0,2.66991 -0.0178,2.70436 -1.38831,2.70436 -0.90903,0 -1.56132,-0.33947 -1.88953,-0.98341 z m 2.34136,-0.9834 c 0,-1.2572 -0.70469,-1.62334 -1.4091,-0.73213 -0.45936,0.5812 -0.45936,0.88306 0,1.46427 0.70441,0.89121 1.4091,0.52506 1.4091,-0.73214 z m 1.40479,0 c 0,-1.82142 0.0952,-1.96569 1.28772,-1.95185 1.10089,0.0128 1.16883,0.0877 0.46822,0.51614 -0.48742,0.2981 -0.81946,1.08898 -0.81946,1.95185 0,0.79786 -0.21072,1.45067 -0.46822,1.45067 -0.25759,0 -0.46826,-0.88507 -0.46826,-1.96681 z m 2.65346,1.63901 c -0.67028,-0.70384 -0.25736,-1.63472 0.85523,-1.92794 0.64208,-0.16922 1.05678,-0.49567 0.92154,-0.72545 -0.13523,-0.22977 -0.55522,-0.29313 -0.93329,-0.14079 -0.37808,0.15234 -0.68741,0.0174 -0.68741,-0.29998 0,-0.33934 0.5304,-0.51289 1.28772,-0.42138 1.11798,0.13507 1.30692,0.39864 1.43307,1.99946 0.13725,1.74106 0.0698,1.84388 -1.20966,1.84388 -0.74529,0 -1.49549,-0.14751 -1.6672,-0.3278 z m 2.02912,-1.16089 c 0,-0.24599 -0.31486,-0.32038 -0.69968,-0.16531 -0.38482,0.15507 -0.58102,0.48363 -0.43591,0.73014 0.30344,0.51559 1.13559,0.10169 1.13559,-0.56483 z m 1.87305,0.11192 c 0,-0.75722 -0.19307,-1.58696 -0.42907,-1.84387 -0.26138,-0.28453 -0.20885,-0.67672 0.13444,-1.00336 0.4102,-0.39029 0.72318,-0.35684 1.14996,0.12293 0.34604,0.38898 0.38692,0.65916 0.0997,0.65916 -0.67022,0 -0.61413,2.12803 0.0752,2.85187 0.43708,0.45892 0.38501,0.59004 -0.23413,0.59004 -0.55967,0 -0.79604,-0.40879 -0.79604,-1.37677 z m 1.88827,0.4232 c -1.02484,-2.01076 1.1929,-3.97331 2.70075,-2.39 0.91086,0.95646 0.65351,1.37676 -0.84292,1.37676 -1.44787,0 -1.90054,0.67842 -0.75943,1.13822 0.35494,0.14302 0.90806,9.8e-4 1.22919,-0.31616 0.45244,-0.4465 0.53607,-0.41018 0.37157,0.16134 -0.33598,1.1674 -2.10939,1.187 -2.69916,0.0298 z m 2.1046,-1.97516 c -0.15218,-0.25863 -0.58607,-0.34559 -0.96415,-0.19325 -0.96794,0.39003 -0.85388,0.66347 0.27679,0.66347 0.53026,0 0.8396,-0.2116 0.68736,-0.47022 z m 1.84599,2.41247 c -0.23521,-0.39963 -0.0365,-0.47235 0.65819,-0.24084 0.56187,0.18725 0.99515,0.11756 0.99515,-0.16004 0,-0.27043 -0.43342,-0.63614 -0.96312,-0.81269 -1.16804,-0.38928 -1.02901,-1.87303 0.19882,-2.12132 0.4751,-0.0961 1.10482,0.0922 1.39941,0.41839 0.41305,0.45741 0.29458,0.51662 -0.51804,0.25883 -0.60242,-0.19112 -1.05355,-0.1237 -1.05355,0.15745 0,0.27044 0.43338,0.63615 0.96313,0.8127 0.56669,0.18886 0.90206,0.65789 0.81468,1.13946 -0.1756,0.96801 -2.0103,1.37107 -2.49467,0.54806 z m 75.63884,-2.1881 v -2.70435 l 1.75603,0.0737 c 1.41247,0.0593 1.50406,0.11374 0.46826,0.27851 -0.87537,0.13924 -1.28772,0.49883 -1.28772,1.12292 0,0.62409 0.41235,0.98368 1.28772,1.12292 l 1.28768,0.20484 -1.28768,0.0737 c -1.04272,0.0597 -1.28772,0.30758 -1.28772,1.30292 0,0.67609 -0.21072,1.22926 -0.46831,1.22926 -0.2575,0 -0.46826,-1.21696 -0.46826,-2.70436 z m 3.92404,1.99035 c -0.36614,-1.00197 0.17958,-1.7445 1.28215,-1.7445 0.51509,0 0.81852,-0.20049 0.6743,-0.44554 -0.14423,-0.24504 -0.71644,-0.32082 -1.27152,-0.16839 -0.69144,0.18987 -0.9038,0.0979 -0.6743,-0.29201 0.49397,-0.83926 2.47598,-0.69186 2.80508,0.20861 0.15631,0.42777 0.28419,1.31283 0.28419,1.9668 0,0.99609 -0.23034,1.18904 -1.41945,1.18904 -0.80901,0 -1.53173,-0.30708 -1.68045,-0.71401 z m 2.05619,-0.66924 c 0.11407,-0.35931 -0.10002,-0.4692 -0.55606,-0.28543 -0.40786,0.16433 -0.7415,0.51482 -0.7415,0.77886 0,0.64628 1.06422,0.24159 1.29756,-0.49343 z m 1.75945,0.91415 c -0.35293,-0.59964 -0.45431,-3.90291 -0.13023,-4.24322 0.16853,-0.17697 0.64761,0.0365 1.0646,0.47432 0.41694,0.43785 0.53237,0.79609 0.25642,0.79609 -0.27595,0 -0.5017,0.63807 -0.5017,1.41793 0,1.30419 0.12208,1.40532 1.52181,1.26064 2.1076,-0.21783 2.12011,-0.22754 0.93657,-0.72709 -1.50635,-0.63577 -1.41972,-2.44318 0.11702,-2.44318 0.64386,0 1.17066,0.24494 1.17066,0.54431 0,0.29937 -0.30929,0.41966 -0.68737,0.26732 -0.37807,-0.15234 -0.81196,-0.0654 -0.96415,0.19325 -0.15223,0.25862 0.0258,0.47022 0.39592,0.47022 0.91826,0 1.74559,1.13435 1.33548,1.8311 -0.35958,0.61095 -4.17002,0.74456 -4.51503,0.15831 z m 90.12721,-2.26641 v -2.73551 l 1.52185,0.15408 c 1.34621,0.13629 1.52186,0.32437 1.52186,1.62918 0,1.15538 -0.22833,1.50916 -1.05355,1.63223 -0.67711,0.10097 -1.05359,0.49632 -1.05359,1.10632 0,0.52206 -0.21076,0.94921 -0.46831,0.94921 -0.25754,0 -0.46826,-1.23098 -0.46826,-2.73551 z m 2.10718,-0.95225 c 0,-0.4958 -0.26335,-0.99364 -0.58533,-1.10633 -0.37067,-0.12975 -0.58528,0.2759 -0.58528,1.10633 0,0.83043 0.21461,1.23608 0.58528,1.10633 0.32198,-0.11268 0.58533,-0.61053 0.58533,-1.10633 z m 2.17738,1.84388 c -0.0626,-1.86533 0.0431,-2.08805 0.98344,-2.07409 0.9487,0.0141 0.976,0.0776 0.27436,0.63792 -0.42856,0.34225 -0.87111,1.2756 -0.9834,2.07409 -0.16066,1.14182 -0.21924,1.00562 -0.2744,-0.63792 z m 2.36477,1.25384 c -1.17614,-1.23504 -0.30067,-3.34357 1.38835,-3.34357 0.4545,0 1.05195,0.44253 1.32757,0.9834 1.01173,1.98503 -1.22338,3.92738 -2.71592,2.36017 z m 2.24766,-1.37677 c 0,-1.12374 -1.3515,-1.70123 -1.70672,-0.72926 -0.14657,0.4011 -0.14657,1.05743 0,1.45852 0.35522,0.97198 1.70672,0.39449 1.70672,-0.72926 z m 1.6864,1.55577 c -0.37906,-0.64408 -0.50516,-3.94342 -0.16436,-4.30128 0.16853,-0.17697 0.64761,0.0365 1.06455,0.47432 0.41699,0.43785 0.53237,0.79609 0.25647,0.79609 -0.70455,0 -0.62902,2.81431 0.0836,3.11626 0.36042,0.1527 0.28105,0.26293 -0.2065,0.28683 -0.43549,0.0213 -0.90066,-0.14615 -1.03374,-0.37222 z m 2.15335,-0.179 c -0.30905,-0.32453 -0.56191,-0.96123 -0.56191,-1.4149 0,-1.87662 2.86099,-2.60915 3.18976,-0.8167 0.11716,0.63877 -0.15767,0.85483 -1.08726,0.85483 -0.78949,0 -1.17108,0.22456 -1.04437,0.61463 0.10976,0.33804 0.67716,0.5413 1.26085,0.45169 0.66985,-0.10284 0.94584,0.0332 0.74828,0.36877 -0.41694,0.70843 -1.8059,0.6761 -2.50535,-0.0583 z m 1.7794,-2.0853 c 0,-0.51898 -0.89864,-0.73702 -1.16593,-0.28289 -0.16173,0.27485 0.0347,0.49972 0.43591,0.49972 0.40154,0 0.73002,-0.0976 0.73002,-0.21683 z m 2.00061,0.70853 c 0,-1.21696 0.0913,-1.7148 0.20294,-1.10632 0.11159,0.60848 0.11159,1.60417 0,2.21265 -0.11163,0.60848 -0.20294,0.11063 -0.20294,-1.10633 z m 1.27723,0 c 0,-1.84137 0.0864,-1.9668 1.35473,-1.9668 1.42956,0 1.92311,0.70435 1.92311,2.74457 0,1.77664 -0.85458,1.43529 -1.0239,-0.40899 -0.0807,-0.87892 -0.35748,-1.59803 -0.61502,-1.59803 -0.2575,0 -0.53429,0.71911 -0.61497,1.59803 -0.20903,2.27647 -1.02395,1.98298 -1.02395,-0.36878 z m -309.05332,-2.9502 c 0,-0.27044 0.21072,-0.4917 0.46827,-0.4917 0.25754,0 0.46826,0.22126 0.46826,0.4917 0,0.27043 -0.21072,0.4917 -0.46826,0.4917 -0.25755,0 -0.46827,-0.22127 -0.46827,-0.4917 z m 307.4144,0 c -0.15916,-0.27044 -0.0662,-0.4917 0.2065,-0.4917 0.27277,0 0.49594,0.22126 0.49594,0.4917 0,0.27043 -0.0929,0.4917 -0.2065,0.4917 -0.1136,0 -0.33673,-0.22127 -0.49594,-0.4917 z M 367.18607,91.910564 c -2.70171,-1.43551 -4.14371,-5.882993 -2.59536,-8.004676 0.68389,-0.937123 0.71188,-0.933927 1.5411,0.175856 0.55815,0.746997 1.11593,1.020963 1.64478,0.80787 0.9654,-0.389005 0.9998,-1.048341 0.16853,-3.230312 -0.66808,-1.753616 -0.51292,-2.923948 0.62726,-4.731204 1.02433,-1.623635 1.67281,-1.369042 2.81312,1.104414 0.56055,1.215907 1.48247,2.598816 2.0487,3.07313 1.72159,1.442104 2.6348,3.202314 2.6348,5.078541 0,2.065812 -1.58208,4.8179 -3.29189,5.726381 -1.48188,0.78737 -4.10916,0.78737 -5.59104,0 z m 6.03734,-2.358993 c 2.23806,-2.350089 1.88961,-5.198319 -0.95786,-7.82939 -0.7317,-0.676089 -1.6412,-1.880652 -2.02113,-2.676804 -0.60726,-1.272547 -0.73093,-1.337687 -1.02287,-0.538806 -0.18266,0.499814 -0.0844,1.88108 0.21826,3.069486 0.61046,2.396682 0.23013,3.693971 -1.342,4.577463 -0.65264,0.36676 -1.20212,0.36498 -1.86232,-0.006 -1.57007,-0.882333 -1.20023,1.614263 0.50428,3.404093 1.10942,1.164947 1.85504,1.512919 3.24182,1.512919 1.38678,0 2.1324,-0.347972 3.24182,-1.512919 z m 97.95149,0.86111 c -4.35245,-1.325217 -6.92434,-2.359839 -7.25807,-2.919738 -0.69303,-1.162833 1.9748,-6.635 4.26344,-8.745055 2.52936,-2.331965 6.54092,-4.250134 7.5269,-3.599043 0.87078,0.575059 4.86834,14.423579 4.6652,16.1615 -0.17747,1.518687 -1.77274,1.36299 -9.19747,-0.897664 z m 7.72783,-0.125949 c -0.1563,-0.427779 -0.28423,-0.980938 -0.28423,-1.229261 0,-0.248309 -0.39063,-0.45148 -0.86812,-0.45148 -0.47748,0 -1.42571,-0.542597 -2.10718,-1.205778 -1.50574,-1.465332 -1.62459,-3.555611 -0.30254,-5.320502 0.51509,-0.687604 0.93657,-1.605477 0.93657,-2.039712 0,-0.721257 -0.15186,-0.723027 -1.75603,-0.02045 -2.32076,1.016444 -4.71236,3.452344 -5.76745,5.874354 l -0.85341,1.959068 2.14277,0.656081 c 1.52021,0.465459 2.28821,0.503423 2.6432,0.13066 0.7126,-0.7483 1.15759,-0.651091 1.3323,0.291033 0.0852,0.459219 0.97094,1.082076 2.02449,1.423537 2.6462,0.857703 3.19308,0.844781 2.85963,-0.0676 z m -8.24465,-4.079041 c 0,-0.619794 1.37454,-1.730934 1.70808,-1.38073 0.4795,0.503531 -0.23614,1.812232 -0.99103,1.812232 -0.39437,0 -0.71705,-0.194183 -0.71705,-0.431502 z m -3.35698,-0.524949 c 0.69753,-2.101131 4.04785,-5.714773 6.41291,-6.916991 1.37603,-0.699478 1.95879,-1.269345 1.78478,-1.745419 -0.3703,-1.013263 -1.02161,-0.882628 -3.72901,0.747931 -2.59179,1.560948 -4.92598,4.303448 -6.03511,7.090811 -0.88127,2.214748 -0.8764,2.27182 0.19494,2.27182 0.56501,0 1.06651,-0.529562 1.37149,-1.448152 z m 10.63233,0.58767 c -0.17438,-0.473261 -0.43394,-1.468955 -0.5769,-2.212653 -0.28976,-1.507785 -0.83215,-1.754383 -1.26337,-0.57441 -0.45825,1.253926 -0.33303,2.050943 0.45164,2.874862 0.98536,1.03472 1.78361,0.984252 1.38863,-0.0878 z m 92.60437,5.305692 c -3.55931,-2.27886 -3.84804,-6.629753 -0.66639,-10.042456 1.03786,-1.113265 2.21592,-2.853866 2.61787,-3.867999 0.40196,-1.014132 0.93592,-1.843877 1.18658,-1.843877 0.25061,0 0.78457,0.829745 1.18653,1.843877 0.40196,1.014133 1.58001,2.754734 2.61787,3.867999 1.36367,1.462711 1.95626,2.56564 2.13645,3.976512 0.46765,3.660844 -2.3777,7.025764 -5.94085,7.025764 -0.90145,0 -2.31355,-0.43192 -3.13806,-0.95982 z m 6.37984,-2.024533 c 2.21774,-2.328739 2.03306,-4.630125 -0.59628,-7.43069 -1.12037,-1.193358 -2.16174,-2.490371 -2.31411,-2.882251 -0.22561,-0.580222 -0.37911,-0.541958 -0.82677,0.206111 -0.30231,0.505242 -1.36812,1.804197 -2.36847,2.886573 -1.46543,1.585602 -1.81878,2.331208 -1.81878,3.837636 0,2.636711 2.16057,4.895545 4.68263,4.895545 1.38676,0 2.13237,-0.347972 3.24178,-1.512924 z m 93.32306,2.657372 c -0.83594,-0.352712 -2.91236,-4.795061 -2.91236,-6.230753 0,-0.651966 0.30915,-1.4548 0.68699,-1.784077 0.37784,-0.329278 1.423,-2.226849 2.32253,-4.216826 1.78942,-3.958565 3.1819,-5.138917 6.06246,-5.138917 2.73002,0 5.62238,3.376313 6.90018,8.054766 0.8786,3.216844 -2.18969,7.103645 -7.01696,8.888745 -1.99471,0.73764 -4.83163,0.938131 -6.04284,0.427062 z m 5.65783,-1.85443 c 4.10531,-1.537641 6.74172,-4.554112 5.97381,-6.835038 -0.27711,-0.823201 -0.35218,-0.799127 -0.81192,0.26037 -0.95497,2.200867 -6.1776,5.244328 -9.08846,5.296266 -1.52565,0.02719 -1.97284,0.482712 -1.30435,1.328521 0.65927,0.834171 2.92796,0.812433 5.23092,-0.0501 z m -0.37555,-3.652058 c 2.90773,-1.394891 4.91676,-3.620909 4.91676,-5.447818 0,-1.859312 -1.08089,-4.213728 -2.12821,-4.63573 -1.33225,-0.536829 -3.71983,-0.328259 -4.72767,0.412999 -0.53724,0.395141 -1.44735,2.039698 -2.02252,3.654571 -0.57512,1.614878 -1.44674,3.317264 -1.93692,3.783082 -0.89017,0.845907 -1.16892,2.205872 -0.5791,2.825233 0.62218,0.653313 4.64849,0.285133 6.47766,-0.592337 z m -1.1707,-3.996873 c -0.51509,-0.540871 -0.93648,-1.391641 -0.93648,-1.890594 0,-1.99718 3.23387,-3.3676 4.58893,-1.944672 0.83973,0.881738 0.67809,3.080791 -0.2944,4.004908 -1.13802,1.081427 -2.21858,1.026838 -3.35805,-0.169642 z m 2.80962,-1.720953 c 0,-0.888994 -0.2516,-1.229251 -0.9089,-1.229251 -0.49991,0 -1.04539,0.231861 -1.21214,0.515248 -0.50165,0.852255 0.15514,1.943255 1.16981,1.943255 0.70244,0 0.95123,-0.321469 0.95123,-1.229252 z"
         id="path55" /></clipPath></defs><rect
     style="opacity:1;fill:#00aa44;fill-opacity:1;fill-rule:nonzero;stroke:none;stroke-width:1.28213;stroke-dasharray:5.1285, 1.28213;stroke-opacity:0"
     id="rect46"
     width="24.695736"
     height="25.931837"
     x="460.52151"
     y="70.87693"
     rx="10.950765"
     ry="8.5611029"
     clip-path="url(#clipPath55)"
     transform="matrix(0.56503192,0,0,0.53809831,-260.20935,-40.270406)" /></svg>
