<?xml version="1.0" encoding="UTF-8" standalone="no"?>
<!-- Created with Inkscape (http://www.inkscape.org/) -->

<svg
   width="13.95388mm"
   height="12.078267mm"
   viewBox="0 0 13.95388 12.078267"
   version="1.1"
   id="svg1"
   inkscape:version="1.4.3 (0d15f75042, 2025-12-25)"
   sodipodi:docname="white.svg"
   xml:space="preserve"
   inkscape:export-filename="white.pdf"
   inkscape:export-xdpi="96.099998"
   inkscape:export-ydpi="96.099998"
   xmlns:inkscape="http://www.inkscape.org/namespaces/inkscape"
   xmlns:sodipodi="http://sodipodi.sourceforge.net/DTD/sodipodi-0.dtd"
   xmlns="http://www.w3.org/2000/svg"
   xmlns:svg="http://www.w3.org/2000/svg"><sodipodi:namedview
     id="namedview1"
     pagecolor="#ffffff"
     bordercolor="#999999"
     borderopacity="1"
     inkscape:showpageshadow="2"
     inkscape:pageopacity="0"
     inkscape:pagecheckerboard="0"
     inkscape:deskcolor="#d1d1d1"
     inkscape:document-units="mm"
     inkscape:zoom="0.73071672"
     inkscape:cx="628.1504"
     inkscape:cy="1005.8618"
     inkscape:window-width="2560"
     inkscape:window-height="1371"
     inkscape:window-x="0"
     inkscape:window-y="0"
     inkscape:window-maximized="1"
     inkscape:current-layer="svg1"
     showgrid="false"
     inkscape:export-bgcolor="#ffffff00"
     showguides="false"><inkscape:grid
       id="grid155"
       units="mm"
       originx="-175.83273"
       originy="-354.63083"
       spacingx="0.99999998"
       spacingy="0.99999996"
       empcolor="#0099e5"
       empopacity="0.30196078"
       color="#0099e5"
       opacity="0.14901961"
       empspacing="11"
       enabled="true"
       visible="false" /><inkscape:page
       x="0"
       y="0"
       width="13.95388"
       height="12.078267"
       id="page2"
       margin="0"
       bleed="0" /></sodipodi:namedview><defs
     id="defs1"><clipPath
       clipPathUnits="userSpaceOnUse"
       id="clipPath56"><path
         style="fill:#000000;stroke-width:0.999998"
         d="m 451.89854,80.212109 c 0.4419,-0.559118 0.44424,-1.111849 0.0108,-2.491448 -0.67444,-2.1459 -0.24111,-2.915023 0.51537,-0.91476 l 0.53719,1.420366 0.45145,-1.352167 c 0.24832,-0.743702 0.64377,-1.352182 0.87879,-1.352182 0.23507,0 0.007,1.161643 -0.50703,2.581429 -0.51392,1.419781 -0.93447,2.63674 -0.93461,2.704354 -1.4e-4,0.0676 -0.34211,0.12293 -0.75999,0.12293 -0.61328,0 -0.65023,-0.138512 -0.1918,-0.718522 z M 337.36346,78.199297 c -0.73817,-1.182978 -0.75112,-1.44618 -0.12843,-2.611108 0.84761,-1.58572 3.34878,-1.865601 3.61671,-0.404719 0.14098,0.768711 0.038,0.808617 -0.75102,0.291181 -1.27805,-0.838114 -2.44324,-0.22933 -2.44324,1.276519 0,1.505848 1.16519,2.114628 2.44324,1.276519 0.78892,-0.517338 0.89231,-0.477388 0.75343,0.29118 -0.27205,1.505519 -2.52479,1.428361 -3.49069,-0.119572 z m 4.3523,0.92843 c -0.67029,-0.703836 -0.25735,-1.634719 0.85525,-1.927939 0.64208,-0.169219 1.05676,-0.495669 0.92152,-0.725451 -0.13524,-0.229767 -0.55522,-0.293127 -0.93328,-0.140788 -0.37807,0.152338 -0.6874,0.01741 -0.6874,-0.299982 0,-0.339338 0.53036,-0.512888 1.28772,-0.421378 1.11798,0.13507 1.30688,0.398642 1.43305,1.999462 0.13723,1.741058 0.0698,1.843878 -1.20967,1.843878 -0.74526,0 -1.49549,-0.147511 -1.66719,-0.327802 z m 2.02914,-1.160886 c 0,-0.245993 -0.31487,-0.320383 -0.69971,-0.16531 -0.38483,0.155068 -0.58099,0.483627 -0.4359,0.730136 0.30346,0.515593 1.13561,0.101694 1.13561,-0.564826 z m 1.95486,-1.338592 c 0.0762,-2.633072 0.0945,-2.675958 0.26632,-0.624278 0.10149,1.211659 0.40655,2.48393 0.67793,2.82728 0.3643,0.46094 0.29462,0.624278 -0.26633,0.624278 -0.6222,0 -0.74492,-0.511821 -0.67792,-2.82728 z m 1.90284,2.256081 c -1.27347,-1.33721 -0.13782,-3.629199 1.62189,-3.27335 1.27895,0.258629 1.19102,3.54616 -0.10004,3.740461 -0.5181,0.078 -1.20293,-0.132234 -1.52185,-0.467111 z m 1.64487,-2.220462 c -0.7352,-0.77199 -0.80485,-0.77199 -1.08697,0 -0.16579,0.453673 -0.16579,1.196033 0,1.6497 0.28212,0.772 0.35177,0.772 1.08697,0 0.73519,-0.771999 0.73519,-0.8777 0,-1.6497 z m 2.05979,0.947783 c -0.0626,-1.865331 0.043,-2.088052 0.98343,-2.074092 0.9487,0.01411 0.97602,0.0776 0.27439,0.637918 -0.42856,0.342253 -0.8711,1.275604 -0.98343,2.074092 -0.16062,1.141822 -0.21921,1.005621 -0.27439,-0.637918 z m 2.27115,-0.12293 c 0,-1.081742 0.21072,-1.966803 0.46827,-1.966803 0.25754,0 0.46826,0.885061 0.46826,1.966803 0,1.081737 -0.21072,1.966808 -0.46826,1.966808 -0.25755,0 -0.46827,-0.885071 -0.46827,-1.966808 z m 1.96671,1.376767 c -0.30906,-0.324528 -0.56192,-0.961231 -0.56192,-1.414899 0,-1.87662 2.86099,-2.609151 3.18973,-0.8167 0.11715,0.638769 -0.15765,0.854832 -1.08723,0.854832 -0.7895,0 -1.17109,0.22456 -1.0444,0.614626 0.10978,0.338044 0.67717,0.541303 1.26086,0.451691 0.66983,-0.102839 0.94582,0.03319 0.7483,0.36877 -0.41697,0.708433 -1.80593,0.676099 -2.50534,-0.0583 z m 1.77939,-2.085298 c 0,-0.51898 -0.89864,-0.73702 -1.16593,-0.28289 -0.16177,0.274851 0.0344,0.49972 0.43591,0.49972 0.40151,0 0.73002,-0.0976 0.73002,-0.21683 z m 1.59334,2.10618 c -0.2295,-0.389923 -0.0172,-0.481881 0.67429,-0.292011 0.5551,0.152432 1.11248,0.101812 1.23861,-0.112491 0.12613,-0.214308 -0.18973,-0.504721 -0.70193,-0.645357 -1.43582,-0.394271 -1.2372,-2.314593 0.2394,-2.314593 0.64386,0 1.17066,0.244941 1.17066,0.544313 0,0.299367 -0.30933,0.419656 -0.6874,0.267318 -0.37807,-0.152339 -0.81194,-0.0654 -0.96416,0.193248 -0.15222,0.25862 0.01,0.470223 0.35961,0.470223 0.92321,0 1.72684,0.994288 1.43939,1.780871 -0.30051,0.822306 -2.30217,0.900737 -2.76847,0.108479 z m 70.22509,-0.687073 c -0.73817,-1.182978 -0.75114,-1.44618 -0.12844,-2.611108 0.8476,-1.58572 3.34878,-1.865601 3.61672,-0.404719 0.14099,0.768711 0.0379,0.808617 -0.751,0.291181 -1.27808,-0.838114 -2.44325,-0.22933 -2.44325,1.276519 0,1.505848 1.16517,2.114628 2.44325,1.276519 0.78888,-0.517338 0.89227,-0.477388 0.75339,0.29118 -0.27202,1.505519 -2.52478,1.428361 -3.49067,-0.119572 z m 4.36093,0.578594 c -0.28746,-0.786583 0.51617,-1.780871 1.4394,-1.780871 0.35002,0 0.51181,-0.211603 0.35962,-0.470223 -0.15223,-0.25863 -0.6388,-0.336697 -1.08122,-0.173487 -0.6219,0.229398 -0.68291,0.158249 -0.26887,-0.31343 1.04141,-1.186449 2.264,-0.39009 2.41932,1.575857 0.13777,1.744402 0.0736,1.839792 -1.23766,1.839792 -0.7606,0 -1.49437,-0.304938 -1.63059,-0.677638 z m 1.78638,-0.305774 c 0.15916,-0.27043 -0.0515,-0.4917 -0.46826,-0.4917 -0.41671,0 -0.62743,0.22127 -0.46827,0.4917 0.15917,0.270441 0.36988,0.491711 0.46827,0.491711 0.0984,0 0.3091,-0.22127 0.46826,-0.491711 z m 2.17733,-0.860466 c -0.0626,-1.865331 0.0431,-2.088052 0.98344,-2.074092 0.9487,0.01411 0.976,0.0776 0.2744,0.637918 -0.42855,0.342253 -0.87111,1.275604 -0.98344,2.074092 -0.16062,1.141822 -0.2192,1.005621 -0.2744,-0.637918 z m 2.27116,-0.829322 c 0,-1.504531 0.21072,-2.735508 0.46827,-2.735508 0.25754,0 0.46826,0.316507 0.46826,0.703348 0,0.386841 0.47411,0.77406 1.05359,0.860481 0.86343,0.128757 1.05359,0.46774 1.05359,1.878071 0,1.58218 -0.12273,1.733378 -1.52185,1.875027 l -1.52186,0.154079 z m 2.2803,-0.108332 c -0.63595,-0.804668 -1.34377,-0.403406 -1.34377,0.761792 0,1.3286 0.60804,1.681538 1.26693,0.735378 0.43179,-0.620089 0.45244,-1.021966 0.0769,-1.49717 z m 2.02772,2.191491 c -1.17618,-1.235039 -0.30067,-3.34357 1.3883,-3.34357 0.45455,0 1.05196,0.442531 1.32762,0.983401 1.01173,1.985031 -1.22343,3.927381 -2.71592,2.360169 z m 2.24766,-1.376767 c 0,-1.123743 -1.35155,-1.701231 -1.70677,-0.729261 -0.14657,0.4011 -0.14657,1.057427 0,1.458517 0.35522,0.971984 1.70677,0.394491 1.70677,-0.729256 z m 1.40479,-0.737551 c 0,-1.48739 0.21072,-2.704349 0.46826,-2.704349 0.25755,0 0.46826,0.331898 0.46826,0.737546 0,0.405653 0.39887,0.737551 0.88642,0.737551 0.97184,0 1.4549,0.911239 1.4549,2.74457 0,1.776643 -0.85458,1.435289 -1.02395,-0.408987 -0.0807,-0.87892 -0.35743,-1.598032 -0.61497,-1.598032 -0.25755,0 -0.53429,0.719112 -0.61502,1.598032 -0.24265,2.642867 -1.0239,1.79875 -1.0239,-1.106331 z m 7.4922,1.720947 c -0.65168,-1.278618 0.15359,-2.950199 1.42127,-2.950199 0.50601,0 0.92004,-0.331898 0.92004,-0.737551 0,-0.405648 0.21072,-0.737546 0.46827,-0.737546 0.25754,0 0.46826,1.216959 0.46826,2.704349 0,2.66991 -0.0178,2.704359 -1.38831,2.704359 -0.90908,0 -1.56132,-0.33947 -1.88953,-0.983412 z m 2.34131,-0.983396 c 0,-1.2572 -0.70468,-1.62334 -1.40909,-0.732133 -0.45937,0.5812 -0.45937,0.88306 0,1.46427 0.70441,0.891213 1.40909,0.525063 1.40909,-0.732137 z m 1.40479,0 c 0,-1.821422 0.0952,-1.965692 1.28772,-1.951851 1.10089,0.01279 1.16883,0.0877 0.46827,0.516139 -0.48742,0.298098 -0.81946,1.088979 -0.81946,1.95185 0,0.797858 -0.21072,1.45067 -0.46827,1.45067 -0.25754,0 -0.46826,-0.885071 -0.46826,-1.966808 z m 2.65346,1.639006 c -0.67027,-0.703836 -0.25731,-1.634719 0.85528,-1.927939 0.64208,-0.169219 1.05678,-0.495669 0.92154,-0.725451 -0.13528,-0.229767 -0.55522,-0.293127 -0.93329,-0.140788 -0.37808,0.152338 -0.68741,0.01741 -0.68741,-0.299982 0,-0.339338 0.53035,-0.512888 1.28772,-0.421378 1.11798,0.13507 1.30687,0.398642 1.43307,1.999462 0.1372,1.741058 0.0698,1.843878 -1.20971,1.843878 -0.74524,0 -1.49549,-0.147511 -1.6672,-0.327802 z m 2.02917,-1.160886 c 0,-0.245993 -0.31486,-0.320383 -0.69973,-0.16531 -0.38482,0.155068 -0.58097,0.483627 -0.4359,0.730136 0.30348,0.515593 1.13563,0.101694 1.13563,-0.564826 z m 1.87305,0.111916 c 0,-0.757219 -0.19311,-1.586959 -0.42912,-1.843868 -0.26138,-0.284528 -0.20884,-0.676718 0.13444,-1.00336 0.4102,-0.390292 0.72319,-0.356842 1.14996,0.12293 0.34609,0.38898 0.38693,0.65916 0.0997,0.65916 -0.67027,0 -0.61417,2.128031 0.0752,2.851869 0.43703,0.458919 0.38501,0.590041 -0.23413,0.590041 -0.55971,0 -0.79609,-0.40879 -0.79609,-1.376772 z m 1.88827,0.423202 c -1.02484,-2.010761 1.19285,-3.973311 2.7007,-2.39 0.91087,0.956461 0.65356,1.376762 -0.84287,1.376762 -1.44792,0 -1.90058,0.678419 -0.75948,1.138218 0.35495,0.143021 0.90811,9.84e-4 1.22919,-0.316158 0.45244,-0.446504 0.53607,-0.410182 0.37162,0.161336 -0.33603,1.167401 -2.10943,1.187 -2.69916,0.0298 z m 2.1046,-1.975162 c -0.15223,-0.25863 -0.58612,-0.345587 -0.96415,-0.193248 -0.96799,0.390031 -0.85392,0.663471 0.27674,0.663471 0.53031,0 0.8396,-0.211603 0.68741,-0.470223 z m 1.84594,2.412471 c -0.23521,-0.39963 -0.0365,-0.472348 0.65824,-0.24084 0.56182,0.187249 0.99515,0.11756 0.99515,-0.160039 0,-0.270431 -0.43342,-0.636138 -0.96317,-0.812688 -1.16803,-0.38928 -1.02896,-1.873031 0.19883,-2.12132 0.47509,-0.0961 1.10481,0.0922 1.3994,0.418388 0.41305,0.45741 0.29458,0.51662 -0.51799,0.258831 -0.60242,-0.191119 -1.05359,-0.123702 -1.05359,0.157448 0,0.27044 0.43342,0.636152 0.96316,0.812703 0.5667,0.188857 0.90202,0.65789 0.81464,1.139457 -0.1756,0.968011 -2.01025,1.371073 -2.49467,0.54806 z m 75.63889,-2.188098 v -2.704349 l 1.75598,0.0737 c 1.41247,0.0593 1.50406,0.11374 0.46827,0.278514 -0.87537,0.13924 -1.28773,0.49883 -1.28773,1.122916 0,0.624092 0.41236,0.983682 1.28773,1.122922 l 1.28772,0.204842 -1.28772,0.0737 c -1.04269,0.0597 -1.28773,0.307583 -1.28773,1.302923 0,0.676088 -0.21072,1.229257 -0.46826,1.229257 -0.25754,0 -0.46826,-1.21696 -0.46826,-2.704359 z m 3.92404,1.99035 c -0.36618,-1.001973 0.17953,-1.7445 1.2821,-1.7445 0.51509,0 0.81852,-0.200491 0.6743,-0.44554 -0.14422,-0.245039 -0.7164,-0.32082 -1.27152,-0.168393 -0.69144,0.189871 -0.90379,0.0979 -0.6743,-0.292006 0.49397,-0.839264 2.47599,-0.691862 2.80508,0.208609 0.15631,0.42777 0.28424,1.312831 0.28424,1.966798 0,0.996092 -0.23034,1.189041 -1.41949,1.189041 -0.80897,0 -1.53169,-0.307082 -1.68041,-0.714009 z m 2.05614,-0.669239 c 0.11407,-0.35931 -0.1,-0.4692 -0.55606,-0.285432 -0.40781,0.164331 -0.7415,0.51482 -0.7415,0.778859 0,0.646281 1.06427,0.241592 1.29756,-0.493427 z m 1.75945,0.91415 c -0.35293,-0.599643 -0.45431,-3.902914 -0.13018,-4.24322 0.16853,-0.176973 0.64756,0.03648 1.06455,0.474319 0.41699,0.43785 0.53237,0.796089 0.25642,0.796089 -0.27595,0 -0.50169,0.63807 -0.50169,1.417932 0,1.304187 0.12207,1.40532 1.52185,1.260637 2.10756,-0.217828 2.12006,-0.22754 0.93652,-0.727088 -1.5063,-0.635769 -1.41972,-2.443182 0.11707,-2.443182 0.64386,0 1.17066,0.244941 1.17066,0.544313 0,0.299367 -0.30934,0.419656 -0.68741,0.267318 -0.37808,-0.152339 -0.81192,-0.0654 -0.96416,0.193248 -0.15223,0.25862 0.0258,0.470223 0.39592,0.470223 0.91826,0 1.74559,1.134349 1.33553,1.831099 -0.35962,0.610948 -4.17002,0.744562 -4.51508,0.158312 z m 90.12726,-2.266411 v -2.735513 l 1.52185,0.15408 c 1.34616,0.136294 1.52186,0.32437 1.52186,1.629181 0,1.155379 -0.22838,1.509163 -1.05359,1.63223 -0.67711,0.100971 -1.0536,0.496323 -1.0536,1.106322 0,0.522058 -0.21071,0.949209 -0.46826,0.949209 -0.25754,0 -0.46826,-1.230978 -0.46826,-2.735509 z m 2.10718,-0.952252 c 0,-0.495801 -0.2634,-0.993638 -0.58533,-1.106331 -0.37072,-0.12975 -0.58533,0.275903 -0.58533,1.106331 0,0.830429 0.21461,1.236082 0.58533,1.106332 0.32193,-0.112683 0.58533,-0.61053 0.58533,-1.106332 z m 2.17733,1.843883 c -0.0626,-1.865331 0.0431,-2.088052 0.98344,-2.074092 0.9487,0.01411 0.976,0.0776 0.27441,0.637918 -0.42856,0.342253 -0.87111,1.275604 -0.98345,2.074092 -0.16061,1.141822 -0.21919,1.005621 -0.2744,-0.637918 z m 2.36482,1.253837 c -1.17618,-1.235039 -0.30067,-3.34357 1.3883,-3.34357 0.4545,0 1.05196,0.442531 1.32762,0.983401 1.01173,1.985031 -1.22343,3.927381 -2.71592,2.360169 z m 2.24766,-1.376767 c 0,-1.123743 -1.35155,-1.701231 -1.70677,-0.729261 -0.14657,0.4011 -0.14657,1.057427 0,1.458517 0.35522,0.971984 1.70677,0.394491 1.70677,-0.729256 z m 1.6864,1.555766 c -0.3791,-0.644079 -0.50516,-3.943416 -0.16436,-4.301276 0.16853,-0.176973 0.64756,0.03648 1.06455,0.474319 0.41699,0.43785 0.53237,0.796089 0.25642,0.796089 -0.70455,0 -0.62902,2.814308 0.0836,3.116261 0.36043,0.152698 0.28106,0.262927 -0.20645,0.286829 -0.43553,0.02129 -0.90071,-0.146148 -1.03379,-0.372222 z m 2.15335,-0.178999 c -0.30905,-0.324528 -0.56191,-0.961231 -0.56191,-1.414899 0,-1.87662 2.86099,-2.609151 3.18971,-0.8167 0.11716,0.638769 -0.15762,0.854832 -1.08721,0.854832 -0.78949,0 -1.17108,0.22456 -1.04442,0.614626 0.10981,0.338044 0.67716,0.541303 1.26085,0.451691 0.66985,-0.102839 0.94584,0.03319 0.74833,0.36877 -0.41699,0.708433 -1.80595,0.676099 -2.50535,-0.0583 z m 1.7794,-2.085298 c 0,-0.51898 -0.89864,-0.73702 -1.16593,-0.28289 -0.16178,0.274851 0.0342,0.49972 0.43591,0.49972 0.40149,0 0.73002,-0.0976 0.73002,-0.21683 z m 2.00056,0.708531 c 0,-1.216964 0.0913,-1.714802 0.20294,-1.106322 0.11164,0.60848 0.11164,1.604169 0,2.212648 -0.11158,0.60848 -0.20294,0.110633 -0.20294,-1.106326 z m 1.27728,0 c 0,-1.84137 0.0864,-1.966803 1.35468,-1.966803 1.42961,0 1.92316,0.704351 1.92316,2.74457 0,1.776643 -0.85458,1.435289 -1.02395,-0.408987 -0.0807,-0.87892 -0.35743,-1.598032 -0.61497,-1.598032 -0.25755,0 -0.53429,0.719112 -0.61502,1.598032 -0.20903,2.276467 -1.0239,1.98298 -1.0239,-0.36878 z m -309.05335,-2.9502 c 0,-0.27044 0.21072,-0.4917 0.46827,-0.4917 0.25754,0 0.46826,0.22126 0.46826,0.4917 0,0.270426 -0.21072,0.491696 -0.46826,0.491696 -0.25755,0 -0.46827,-0.22127 -0.46827,-0.491696 z m 307.41443,0 c -0.15916,-0.27044 -0.0662,-0.4917 0.2065,-0.4917 0.27272,0 0.49589,0.22126 0.49589,0.4917 0,0.270426 -0.0929,0.491696 -0.2065,0.491696 -0.11355,0 -0.33673,-0.22127 -0.49589,-0.491696 z M 346.56853,64.075469 c -2.70171,-1.435511 -4.14371,-5.882988 -2.59536,-8.004677 0.68389,-0.937118 0.71188,-0.933926 1.5411,0.175857 0.55815,0.747001 1.11593,1.020967 1.64478,0.807869 0.9654,-0.389004 0.9998,-1.048335 0.16853,-3.230307 -0.66808,-1.753616 -0.51292,-2.923952 0.62726,-4.731208 1.02433,-1.623635 1.67281,-1.369042 2.81312,1.104414 0.56055,1.215907 1.48247,2.598815 2.0487,3.07313 1.72159,1.442104 2.6348,3.202319 2.6348,5.078541 0,2.065811 -1.58208,4.8179 -3.29189,5.726381 -1.48188,0.78737 -4.10916,0.78737 -5.59104,0 z m 6.03734,-2.358989 c 2.23806,-2.350093 1.88961,-5.198319 -0.95786,-7.829395 -0.7317,-0.676088 -1.6412,-1.880647 -2.02113,-2.676804 -0.60726,-1.272546 -0.73093,-1.337687 -1.02287,-0.538801 -0.18266,0.499809 -0.0844,1.88108 0.21826,3.069482 0.61046,2.396682 0.23013,3.69397 -1.342,4.577468 -0.65264,0.36676 -1.20212,0.36498 -1.86232,-0.006 -1.57007,-0.882332 -1.20023,1.614259 0.50428,3.404089 1.10942,1.164947 1.85504,1.512919 3.24182,1.512919 1.38678,0 2.1324,-0.347972 3.24182,-1.512919 z m 97.95147,0.861111 c -4.35245,-1.325222 -6.92434,-2.359844 -7.25807,-2.919744 -0.69303,-1.162828 1.97481,-6.635 4.26349,-8.745055 2.52932,-2.331959 6.54092,-4.250128 7.52685,-3.599038 0.87078,0.575054 4.86834,14.423574 4.66521,16.161496 -0.17747,1.518691 -1.77275,1.362989 -9.19748,-0.897659 z m 7.72788,-0.125954 c -0.15635,-0.42778 -0.28423,-0.980938 -0.28423,-1.229257 0,-0.248309 -0.39068,-0.451479 -0.86816,-0.451479 -0.47749,0 -1.42572,-0.542602 -2.10718,-1.205783 -1.50575,-1.465328 -1.62459,-3.555607 -0.3025,-5.320502 0.51509,-0.687605 0.93652,-1.605477 0.93652,-2.039708 0,-0.721261 -0.15181,-0.723026 -1.75598,-0.02046 -2.32081,1.016444 -4.71241,3.452344 -5.7675,5.874349 l -0.85341,1.959074 2.14282,0.656076 c 1.52021,0.465463 2.28816,0.503423 2.64315,0.130664 0.71265,-0.748304 1.15764,-0.65109 1.33235,0.291028 0.0852,0.459219 0.97094,1.082081 2.02444,1.423538 2.6462,0.857703 3.19308,0.844781 2.85968,-0.0676 z m -8.2447,-4.079036 c 0,-0.619799 1.37459,-1.730934 1.70808,-1.380735 0.47955,0.503531 -0.23614,1.812232 -0.99098,1.812232 -0.39442,0 -0.7171,-0.194178 -0.7171,-0.431497 z m -3.35697,-0.52495 c 0.69757,-2.101131 4.04785,-5.714777 6.4129,-6.916995 1.37608,-0.699474 1.95879,-1.26934 1.78483,-1.745415 -0.3703,-1.013262 -1.02161,-0.882627 -3.72901,0.747931 -2.59183,1.560943 -4.92603,4.303444 -6.03516,7.090812 -0.88127,2.214743 -0.87635,2.271814 0.19499,2.271814 0.56496,0 1.06651,-0.529561 1.37145,-1.448147 z m 10.63232,0.587666 c -0.17433,-0.473257 -0.43394,-1.468956 -0.57685,-2.212653 -0.28981,-1.507786 -0.83215,-1.754384 -1.26337,-0.57441 -0.45825,1.25393 -0.33303,2.050948 0.45159,2.874866 0.98541,1.03472 1.78361,0.984247 1.38863,-0.0878 z m 92.60437,5.305692 c -3.55931,-2.278861 -3.848,-6.629749 -0.66638,-10.042452 1.0379,-1.113269 2.21591,-2.85387 2.61791,-3.868003 0.40196,-1.014128 0.93587,-1.843873 1.18653,-1.843873 0.25062,0 0.78458,0.829745 1.18653,1.843873 0.40196,1.014133 1.58001,2.754734 2.61792,3.868003 1.36367,1.462707 1.95621,2.565641 2.13645,3.976507 0.4676,3.660845 -2.37775,7.025765 -5.9409,7.025765 -0.9014,0 -2.31354,-0.43192 -3.13806,-0.95982 z m 6.37989,-2.024529 c 2.21774,-2.328739 2.03306,-4.630124 -0.59628,-7.430689 -1.12042,-1.193363 -2.16179,-2.490376 -2.31416,-2.882252 -0.22561,-0.580226 -0.3791,-0.541962 -0.82672,0.206111 -0.30235,0.505238 -1.36817,1.804193 -2.36852,2.886569 -1.46542,1.585602 -1.81877,2.331212 -1.81877,3.837641 0,2.63671 2.16061,4.895539 4.68262,4.895539 1.38676,0 2.13238,-0.347971 3.24183,-1.512919 z m 93.32301,2.657368 c -0.83589,-0.352707 -2.91231,-4.795061 -2.91231,-6.230749 0,-0.65197 0.30915,-1.454805 0.68699,-1.784082 0.37784,-0.329277 1.42295,-2.226848 2.32249,-4.216825 1.78942,-3.958565 3.18189,-5.138917 6.06245,-5.138917 2.73007,0 5.62243,3.376312 6.90023,8.054771 0.8786,3.216844 -2.18974,7.103645 -7.01701,8.888745 -1.99466,0.737639 -4.83163,0.93813 -6.04284,0.427057 z m 5.65783,-1.85443 c 4.10531,-1.537637 6.74172,-4.554108 5.97386,-6.835034 -0.27716,-0.8232 -0.35222,-0.799132 -0.81192,0.260366 -0.95502,2.200867 -6.17765,5.244327 -9.08846,5.29627 -1.52569,0.02719 -1.97288,0.482708 -1.30439,1.328517 0.65931,0.83417 2.928,0.812432 5.23091,-0.0501 z m -0.37554,-3.652058 c 2.90772,-1.394891 4.91675,-3.620904 4.91675,-5.447818 0,-1.859313 -1.08084,-4.213723 -2.12816,-4.635725 -1.3323,-0.536834 -3.71983,-0.328265 -4.72767,0.412994 -0.53728,0.39514 -1.4474,2.039697 -2.02252,3.654575 -0.57517,1.614874 -1.44679,3.317259 -1.93697,3.783077 -0.89017,0.845912 -1.16892,2.205878 -0.5791,2.825234 0.62218,0.653313 4.64854,0.285132 6.47767,-0.592337 z m -1.17066,-3.996873 c -0.51509,-0.540871 -0.93653,-1.391636 -0.93653,-1.890595 0,-1.99718 3.23387,-3.367599 4.58898,-1.944671 0.83969,0.881742 0.67804,3.080795 -0.29445,4.004912 -1.13797,1.081422 -2.21858,1.026834 -3.358,-0.169646 z m 2.80958,-1.720953 c 0,-0.88899 -0.2516,-1.229247 -0.9089,-1.229247 -0.49987,0 -1.04535,0.231857 -1.21215,0.515244 -0.5016,0.852255 0.15514,1.943255 1.16982,1.943255 0.70244,0 0.95123,-0.321469 0.95123,-1.229252 z"
         id="path56" /></clipPath></defs><rect
     style="opacity:1;fill:#ffd42a;fill-opacity:1;fill-rule:nonzero;stroke:none;stroke-width:1.28213;stroke-dasharray:5.1285, 1.28213;stroke-opacity:0"
     id="rect47"
     width="24.695736"
     height="25.931837"
     x="541.17914"
     y="43.517651"
     rx="10.950765"
     ry="8.5611029"
     clip-path="url(#clipPath56)"
     transform="matrix(0.56503192,0,0,0.53809831,-305.78349,-25.292376)" /></svg>
