<?xml version="1.0" encoding="UTF-8" standalone="no"?>
<!-- Created with Inkscape (http://www.inkscape.org/) -->

<svg
   width="10.655244mm"
   height="9.3120604mm"
   viewBox="0 0 10.655244 9.3120604"
   version="1.1"
   id="svg1"
   inkscape:version="1.4.3 (0d15f75042, 2025-12-25)"
   sodipodi:docname="white.svg"
   xml:space="preserve"
   inkscape:export-filename="white.pdf"
   inkscape:export-xdpi="96.099998"
   inkscape:export-ydpi="96.099998"
   xmlns:inkscape="http://www.inkscape.org/namespaces/inkscape"
   xmlns:sodipodi="http://sodipodi.sourceforge.net/DTD/sodipodi-0.dtd"
   xmlns="http://www.w3.org/2000/svg"
   xmlns:svg="http://www.w3.org/2000/svg"><sodipodi:namedview
     id="namedview1"
     pagecolor="#ffffff"
     bordercolor="#999999"
     borderopacity="1"
     inkscape:showpageshadow="2"
     inkscape:pageopacity="0"
     inkscape:pagecheckerboard="0"
     inkscape:deskcolor="#d1d1d1"
     inkscape:document-units="mm"
     inkscape:zoom="0.73071672"
     inkscape:cx="628.1504"
     inkscape:cy="1005.8618"
     inkscape:window-width="2560"
     inkscape:window-height="1371"
     inkscape:window-x="0"
     inkscape:window-y="0"
     inkscape:window-maximized="1"
     inkscape:current-layer="svg1"
     showgrid="false"
     inkscape:export-bgcolor="#ffffff00"
     showguides="false"><inkscape:grid
       id="grid155"
       units="mm"
       originx="-76.383522"
       originy="-354.7149"
       spacingx="0.99999998"
       spacingy="0.99999996"
       empcolor="#0099e5"
       empopacity="0.30196078"
       color="#0099e5"
       opacity="0.14901961"
       empspacing="11"
       enabled="true"
       visible="false" /><inkscape:page
       x="0"
       y="0"
       width="10.655244"
       height="9.3120604"
       id="page2"
       margin="0"
       bleed="0" /></sodipodi:namedview><defs
     id="defs1"><clipPath
       clipPathUnits="userSpaceOnUse"
       id="clipPath57"><path
         style="fill:#000000;stroke-width:0.999998"
         d="m 391.17874,71.409559 c 0.4419,-0.559123 0.44428,-1.111853 0.0108,-2.491453 -0.67444,-2.1459 -0.24116,-2.915018 0.51532,-0.91476 l 0.53719,1.420371 0.4515,-1.352167 c 0.24827,-0.743702 0.64377,-1.352182 0.87879,-1.352182 0.23502,0 0.007,1.161638 -0.50708,2.581429 -0.51387,1.419781 -0.93447,2.63674 -0.93461,2.704349 -9e-5,0.0676 -0.34211,0.12293 -0.75994,0.12293 -0.61329,0 -0.65028,-0.138507 -0.19185,-0.718517 z M 276.64368,69.396748 c -0.73817,-1.182978 -0.75112,-1.446181 -0.12843,-2.611108 0.84761,-1.58572 3.34878,-1.865601 3.61671,-0.404724 0.14098,0.76871 0.038,0.808621 -0.75102,0.29118 -1.27805,-0.838109 -2.44324,-0.229329 -2.44324,1.276524 0,1.505848 1.16519,2.114628 2.44324,1.276519 0.78892,-0.517343 0.89231,-0.477392 0.75343,0.29118 -0.27205,1.505519 -2.52479,1.428357 -3.49069,-0.119571 z m 4.3523,0.928429 c -0.67029,-0.70384 -0.25735,-1.634718 0.85525,-1.927939 0.64208,-0.169219 1.05676,-0.495669 0.92152,-0.72545 -0.13524,-0.229772 -0.55522,-0.293128 -0.93328,-0.140789 -0.37807,0.152339 -0.6874,0.01741 -0.6874,-0.299982 0,-0.339337 0.53036,-0.512888 1.28772,-0.421377 1.11798,0.13507 1.30688,0.398636 1.43305,1.999456 0.13723,1.741059 0.0698,1.843883 -1.20967,1.843883 -0.74526,0 -1.49549,-0.14751 -1.66719,-0.327802 z m 2.02914,-1.160891 c 0,-0.245988 -0.31487,-0.320377 -0.69971,-0.16531 -0.38483,0.155073 -0.58099,0.483632 -0.4359,0.730142 0.30346,0.515587 1.13561,0.101688 1.13561,-0.564832 z m 1.95486,-1.338586 c 0.0762,-2.633072 0.0945,-2.675963 0.26632,-0.624283 0.10149,1.211659 0.40655,2.483929 0.67793,2.827279 0.3643,0.46094 0.29462,0.624283 -0.26633,0.624283 -0.6222,0 -0.74492,-0.511821 -0.67792,-2.827279 z m 1.90284,2.256075 c -1.27347,-1.337209 -0.13782,-3.629199 1.62189,-3.273345 1.27895,0.25863 1.19102,3.546156 -0.10004,3.740456 -0.5181,0.078 -1.20293,-0.132228 -1.52185,-0.467111 z m 1.64487,-2.220456 c -0.7352,-0.77199 -0.80485,-0.77199 -1.08697,0 -0.16579,0.453667 -0.16579,1.196027 0,1.6497 0.28212,0.772 0.35177,0.772 1.08697,0 0.73519,-0.772 0.73519,-0.877701 0,-1.6497 z m 2.05979,0.947777 c -0.0626,-1.86533 0.043,-2.088046 0.98343,-2.074087 0.9487,0.01411 0.97602,0.0776 0.27439,0.637918 -0.42856,0.342253 -0.8711,1.2756 -0.98343,2.074092 -0.16062,1.141818 -0.21921,1.005617 -0.27439,-0.637923 z m 2.27115,-0.12293 c 0,-1.081736 0.21072,-1.966798 0.46827,-1.966798 0.25754,0 0.46826,0.885062 0.46826,1.966798 0,1.081742 -0.21072,1.966813 -0.46826,1.966813 -0.25755,0 -0.46827,-0.885071 -0.46827,-1.966813 z m 1.96671,1.376772 c -0.30906,-0.324532 -0.56192,-0.96123 -0.56192,-1.414898 0,-1.87662 2.86099,-2.609151 3.18973,-0.8167 0.11715,0.638768 -0.15765,0.854826 -1.08723,0.854826 -0.7895,0 -1.17109,0.22456 -1.0444,0.614631 0.10978,0.338039 0.67717,0.541299 1.26086,0.451691 0.66983,-0.102839 0.94582,0.03319 0.7483,0.368771 -0.41697,0.708428 -1.80593,0.676098 -2.50534,-0.0583 z m 1.77939,-2.085298 c 0,-0.51898 -0.89864,-0.73702 -1.16593,-0.28289 -0.16177,0.274846 0.0344,0.499716 0.43591,0.499716 0.40151,0 0.73002,-0.0976 0.73002,-0.216826 z m 1.59334,2.106176 c -0.2295,-0.389919 -0.0172,-0.481877 0.67429,-0.292007 0.5551,0.152428 1.11248,0.101807 1.23861,-0.112491 0.12613,-0.214308 -0.18973,-0.504721 -0.70193,-0.645362 -1.43582,-0.39427 -1.2372,-2.314588 0.2394,-2.314588 0.64386,0 1.17066,0.244941 1.17066,0.544308 0,0.299372 -0.30933,0.419662 -0.6874,0.267323 -0.37807,-0.152339 -0.81194,-0.0654 -0.96416,0.193248 -0.15222,0.25862 0.01,0.470219 0.35961,0.470219 0.92321,0 1.72684,0.994292 1.43939,1.780871 -0.30051,0.82231 -2.30217,0.900741 -2.76847,0.108479 z m 70.22509,-0.687068 c -0.73818,-1.182978 -0.75112,-1.446181 -0.12843,-2.611108 0.84761,-1.58572 3.34878,-1.865601 3.61671,-0.404724 0.14098,0.76871 0.038,0.808621 -0.75102,0.29118 -1.27805,-0.838109 -2.44324,-0.229329 -2.44324,1.276524 0,1.505848 1.16519,2.114628 2.44324,1.276519 0.78892,-0.517343 0.89231,-0.477392 0.75343,0.29118 -0.27205,1.505519 -2.5248,1.428357 -3.49069,-0.119571 z m 4.36094,0.578589 c -0.28745,-0.786579 0.51618,-1.780871 1.43939,-1.780871 0.35001,0 0.51183,-0.211599 0.35961,-0.470219 -0.15222,-0.258629 -0.63877,-0.336697 -1.08122,-0.173487 -0.62188,0.229398 -0.68291,0.158249 -0.26888,-0.313434 1.04142,-1.18645 2.26402,-0.390086 2.41932,1.575861 0.1378,1.744402 0.0736,1.839792 -1.23762,1.839792 -0.76063,0 -1.4944,-0.304943 -1.6306,-0.677642 z m 1.78636,-0.305769 c 0.15917,-0.270431 -0.0515,-0.491701 -0.46826,-0.491701 -0.41672,0 -0.62743,0.22127 -0.46826,0.491701 0.15917,0.27044 0.36989,0.49171 0.46826,0.49171 0.0984,0 0.30909,-0.22127 0.46826,-0.49171 z m 2.17735,-0.860472 c -0.0626,-1.86533 0.043,-2.088046 0.98343,-2.074087 0.9487,0.01411 0.97602,0.0776 0.27439,0.637918 -0.42856,0.342253 -0.87111,1.2756 -0.98343,2.074092 -0.16063,1.141818 -0.21921,1.005617 -0.27439,-0.637923 z m 2.27115,-0.829317 c 0,-1.50453 0.21072,-2.735513 0.46826,-2.735513 0.25754,0 0.46826,0.316513 0.46826,0.703353 0,0.386841 0.47412,0.77406 1.05359,0.860477 0.86343,0.128761 1.05359,0.46774 1.05359,1.87807 0,1.58218 -0.12271,1.733383 -1.52185,1.875032 l -1.52185,0.15408 z m 2.28032,-0.108331 c -0.63598,-0.804669 -1.3438,-0.403411 -1.3438,0.761792 0,1.328595 0.60807,1.681537 1.26694,0.735377 0.4318,-0.620088 0.45244,-1.02197 0.0769,-1.497169 z m 2.02769,2.19149 c -1.17616,-1.235039 -0.30066,-3.34357 1.38832,-3.34357 0.45452,0 1.05194,0.442531 1.32761,0.983402 1.01171,1.98503 -1.22342,3.927376 -2.71593,2.360168 z m 2.24766,-1.376772 c 0,-1.123738 -1.35154,-1.70123 -1.70674,-0.729256 -0.14658,0.4011 -0.14658,1.057427 0,1.458517 0.3552,0.97198 1.70674,0.394492 1.70674,-0.729261 z m 1.40479,-0.737546 c 0,-1.48739 0.21072,-2.704354 0.46827,-2.704354 0.25754,0 0.46826,0.331903 0.46826,0.737551 0,0.405653 0.39889,0.737551 0.88642,0.737551 0.97186,0 1.45487,0.91124 1.45487,2.744571 0,1.776637 -0.85458,1.435289 -1.0239,-0.408992 -0.0807,-0.87892 -0.35745,-1.598028 -0.615,-1.598028 -0.25754,0 -0.53429,0.719108 -0.61499,1.598028 -0.24268,2.642872 -1.02393,1.798749 -1.02393,-1.106327 z m 7.49219,1.720948 c -0.65168,-1.278619 0.15359,-2.9502 1.42127,-2.9502 0.50605,0 0.92004,-0.331898 0.92004,-0.737551 0,-0.405648 0.21072,-0.737551 0.46826,-0.737551 0.25755,0 0.46827,1.216964 0.46827,2.704354 0,2.669906 -0.0178,2.704359 -1.38831,2.704359 -0.90904,0 -1.56133,-0.33947 -1.88953,-0.983411 z m 2.34131,-0.983402 c 0,-1.2572 -0.70469,-1.62334 -1.40905,-0.732127 -0.45936,0.5812 -0.45936,0.88306 0,1.46427 0.70436,0.891207 1.40905,0.525057 1.40905,-0.732143 z m 1.40479,0 c 0,-1.821417 0.0952,-1.965687 1.28772,-1.95185 1.10093,0.01278 1.16883,0.0877 0.46826,0.516143 -0.48741,0.298099 -0.81946,1.08898 -0.81946,1.95185 0,0.797859 -0.21072,1.45067 -0.46826,1.45067 -0.25754,0 -0.46826,-0.885071 -0.46826,-1.966813 z m 2.6535,1.639011 c -0.67027,-0.70384 -0.25736,-1.634718 0.85524,-1.927939 0.64208,-0.169219 1.05677,-0.495669 0.92154,-0.72545 -0.13524,-0.229772 -0.55522,-0.293128 -0.9333,-0.140789 -0.37807,0.152339 -0.68741,0.01741 -0.68741,-0.299982 0,-0.339337 0.5304,-0.512888 1.28773,-0.421377 1.11797,0.13507 1.30687,0.398636 1.43307,1.999456 0.13724,1.741059 0.0698,1.843883 -1.20967,1.843883 -0.74528,0 -1.49549,-0.14751 -1.6672,-0.327802 z m 2.02912,-1.160891 c 0,-0.245988 -0.31486,-0.320377 -0.69967,-0.16531 -0.38487,0.155073 -0.58102,0.483632 -0.43591,0.730142 0.30343,0.515587 1.13558,0.101688 1.13558,-0.564832 z m 1.87305,0.111921 c 0,-0.757219 -0.19306,-1.586959 -0.42911,-1.843868 -0.26134,-0.284532 -0.2088,-0.676723 0.13448,-1.003359 0.4102,-0.390293 0.72314,-0.356842 1.14996,0.12293 0.34605,0.388979 0.38688,0.659159 0.0997,0.659159 -0.67023,0 -0.61413,2.128027 0.0752,2.851869 0.43703,0.458919 0.38501,0.590041 -0.23413,0.590041 -0.55967,0 -0.79605,-0.40879 -0.79605,-1.376772 z m 1.88827,0.423202 c -1.02484,-2.010761 1.1929,-3.973311 2.70071,-2.39 0.91091,0.956461 0.65355,1.376757 -0.84287,1.376757 -1.44792,0 -1.90054,0.678424 -0.75943,1.138224 0.35494,0.143016 0.90805,9.83e-4 1.22919,-0.316164 0.45243,-0.446499 0.53606,-0.410177 0.37156,0.161342 -0.33598,1.167401 -2.10938,1.187 -2.69916,0.0298 z m 2.10461,-1.975162 c -0.15223,-0.258629 -0.58608,-0.345587 -0.96415,-0.193248 -0.96795,0.390027 -0.85388,0.663467 0.27679,0.663467 0.53026,0 0.83959,-0.211599 0.68736,-0.470219 z m 1.84599,2.412471 c -0.23521,-0.39963 -0.0365,-0.472352 0.65819,-0.24084 0.56182,0.187249 0.99515,0.117561 0.99515,-0.160039 0,-0.27043 -0.43343,-0.636143 -0.96313,-0.812693 -1.16803,-0.389279 -1.029,-1.87303 0.19878,-2.12132 0.4751,-0.0961 1.10487,0.0922 1.39945,0.418394 0.41306,0.457409 0.29454,0.51662 -0.51804,0.258826 -0.60242,-0.191119 -1.05359,-0.123697 -1.05359,0.157452 0,0.270441 0.43343,0.636148 0.96317,0.812698 0.56669,0.188862 0.90206,0.657891 0.81468,1.139462 -0.17559,0.968007 -2.01029,1.371069 -2.49466,0.54806 z m 75.63883,-2.188098 v -2.704354 l 1.75599,0.0737 c 1.41251,0.0593 1.50411,0.11374 0.46826,0.278509 -0.87532,0.13924 -1.28772,0.498831 -1.28772,1.122922 0,0.624091 0.4124,0.983681 1.28772,1.122921 l 1.28772,0.204838 -1.28772,0.0737 c -1.04268,0.0597 -1.28772,0.307578 -1.28772,1.302918 0,0.676089 -0.21072,1.229262 -0.46826,1.229262 -0.25755,0 -0.46827,-1.216959 -0.46827,-2.704359 z m 3.92404,1.990346 c -0.36613,-1.001968 0.17958,-1.7445 1.28215,-1.7445 0.51509,0 0.81853,-0.200487 0.6743,-0.44554 -0.14427,-0.245039 -0.71644,-0.32082 -1.27152,-0.168388 -0.69148,0.18987 -0.90379,0.0979 -0.6743,-0.292011 0.49397,-0.83926 2.47599,-0.691858 2.80504,0.208609 0.15635,0.427774 0.28423,1.312831 0.28423,1.966803 0,0.996087 -0.23033,1.18904 -1.41944,1.18904 -0.80902,0 -1.53173,-0.307082 -1.68046,-0.714013 z m 2.05619,-0.669239 c 0.11407,-0.359311 -0.10002,-0.469201 -0.55606,-0.285428 -0.40786,0.164327 -0.74154,0.514821 -0.74154,0.778859 0,0.646277 1.06427,0.241587 1.2976,-0.493431 z m 1.75945,0.91415 c -0.35297,-0.599639 -0.45431,-3.902909 -0.13022,-4.24322 0.16853,-0.176968 0.64761,0.03648 1.06455,0.474319 0.41699,0.43785 0.53241,0.796093 0.25646,0.796093 -0.27594,0 -0.50174,0.63807 -0.50174,1.417927 0,1.304192 0.12208,1.40532 1.52186,1.260642 2.1076,-0.217828 2.1201,-0.227539 0.93652,-0.727092 -1.50631,-0.635769 -1.41968,-2.443178 0.11707,-2.443178 0.64386,0 1.17065,0.244941 1.17065,0.544308 0,0.299372 -0.30933,0.419662 -0.68736,0.267323 -0.37808,-0.152339 -0.81197,-0.0654 -0.9642,0.193248 -0.15219,0.25862 0.0257,0.470219 0.39596,0.470219 0.91827,0 1.74559,1.134353 1.33549,1.831103 -0.35958,0.610948 -4.17002,0.744558 -4.51504,0.158308 z m 90.12722,-2.266411 v -2.735508 l 1.52185,0.154079 c 1.34616,0.13629 1.52185,0.32437 1.52185,1.629182 0,1.155378 -0.22832,1.509157 -1.05359,1.63223 -0.67706,0.10097 -1.05359,0.496318 -1.05359,1.106317 0,0.522063 -0.21072,0.949213 -0.46826,0.949213 -0.25755,0 -0.46826,-1.230983 -0.46826,-2.735513 z m 2.10718,-0.952247 c 0,-0.495802 -0.2634,-0.993639 -0.58533,-1.106332 -0.37068,-0.12975 -0.58533,0.275903 -0.58533,1.106332 0,0.830428 0.21465,1.236081 0.58533,1.106331 0.32193,-0.112683 0.58533,-0.61053 0.58533,-1.106331 z m 2.17737,1.843877 c -0.0626,-1.86533 0.0431,-2.088046 0.9834,-2.074087 0.9487,0.01411 0.97605,0.0776 0.2744,0.637918 -0.42855,0.342253 -0.87111,1.2756 -0.98344,2.074092 -0.16062,1.141818 -0.2192,1.005617 -0.27436,-0.637923 z m 2.36478,1.253842 c -1.17614,-1.235039 -0.30068,-3.34357 1.3883,-3.34357 0.45454,0 1.05195,0.442531 1.32762,0.983402 1.01173,1.98503 -1.22338,3.927376 -2.71592,2.360168 z m 2.24766,-1.376772 c 0,-1.123738 -1.35155,-1.70123 -1.70673,-0.729256 -0.14656,0.4011 -0.14656,1.057427 0,1.458517 0.35518,0.97198 1.70673,0.394492 1.70673,-0.729261 z m 1.6864,1.555771 c -0.37906,-0.644079 -0.50516,-3.94342 -0.16436,-4.30128 0.16852,-0.176968 0.6476,0.03648 1.06454,0.474319 0.41699,0.43785 0.53237,0.796093 0.25647,0.796093 -0.70455,0 -0.62906,2.814308 0.0836,3.116257 0.36037,0.152702 0.28105,0.262932 -0.20651,0.286833 -0.43548,0.02129 -0.9007,-0.146153 -1.03373,-0.372222 z m 2.15335,-0.178999 c -0.30905,-0.324532 -0.56192,-0.96123 -0.56192,-1.414898 0,-1.87662 2.861,-2.609151 3.18976,-0.8167 0.11716,0.638768 -0.15766,0.854826 -1.08726,0.854826 -0.78949,0 -1.17107,0.22456 -1.04436,0.614631 0.10976,0.338039 0.67715,0.541299 1.26084,0.451691 0.66985,-0.102839 0.9458,0.03319 0.74828,0.368771 -0.41694,0.708428 -1.8059,0.676098 -2.50534,-0.0583 z m 1.7794,-2.085298 c 0,-0.51898 -0.89865,-0.73702 -1.16593,-0.28289 -0.16174,0.274846 0.0346,0.499716 0.43591,0.499716 0.40153,0 0.73002,-0.0976 0.73002,-0.216826 z m 2.0006,0.708526 c 0,-1.216959 0.0913,-1.714796 0.20295,-1.106317 0.11158,0.60848 0.11158,1.604169 0,2.212649 -0.11164,0.60848 -0.20295,0.110628 -0.20295,-1.106332 z m 1.27724,0 c 0,-1.84137 0.0864,-1.966798 1.35468,-1.966798 1.42961,0 1.92315,0.704352 1.92315,2.744571 0,1.776637 -0.85457,1.435289 -1.0239,-0.408992 -0.0807,-0.87892 -0.35747,-1.598028 -0.61501,-1.598028 -0.25755,0 -0.53429,0.719108 -0.61497,1.598028 -0.20904,2.276471 -1.02395,1.98298 -1.02395,-0.368781 z M 292.85863,65.735967 c 0,-0.270441 0.21072,-0.491701 0.46827,-0.491701 0.25754,0 0.46826,0.22126 0.46826,0.491701 0,0.27043 -0.21072,0.4917 -0.46826,0.4917 -0.25755,0 -0.46827,-0.22127 -0.46827,-0.4917 z m 307.41441,0 c -0.15917,-0.270441 -0.0662,-0.491701 0.2065,-0.491701 0.27276,0 0.49589,0.22126 0.49589,0.491701 0,0.27043 -0.0929,0.4917 -0.2065,0.4917 -0.11356,0 -0.33673,-0.22127 -0.49589,-0.4917 z M 285.84875,55.272919 c -2.70171,-1.43551 -4.14371,-5.882993 -2.59536,-8.004676 0.68389,-0.937123 0.71188,-0.933927 1.5411,0.175856 0.55815,0.746997 1.11593,1.020963 1.64478,0.80787 0.9654,-0.389005 0.9998,-1.048341 0.16853,-3.230312 -0.66808,-1.753616 -0.51292,-2.923948 0.62726,-4.731204 1.02433,-1.623635 1.67281,-1.369042 2.81312,1.104414 0.56055,1.215907 1.48247,2.598816 2.0487,3.07313 1.72159,1.442104 2.6348,3.202314 2.6348,5.078541 0,2.065812 -1.58208,4.8179 -3.29189,5.726381 -1.48188,0.78737 -4.10916,0.78737 -5.59104,0 z m 6.03734,-2.358993 c 2.23806,-2.350089 1.88961,-5.198319 -0.95786,-7.82939 -0.7317,-0.676089 -1.6412,-1.880652 -2.02113,-2.676804 -0.60726,-1.272547 -0.73093,-1.337687 -1.02287,-0.538806 -0.18266,0.499814 -0.0844,1.88108 0.21826,3.069486 0.61046,2.396682 0.23013,3.693971 -1.342,4.577463 -0.65264,0.36676 -1.20212,0.36498 -1.86232,-0.006 -1.57007,-0.882333 -1.20023,1.614263 0.50428,3.404093 1.10942,1.164947 1.85504,1.512919 3.24182,1.512919 1.38678,0 2.1324,-0.347972 3.24182,-1.512919 z m 97.9515,0.86111 c -4.35246,-1.325217 -6.92437,-2.359839 -7.25808,-2.919738 -0.69304,-1.162833 1.97479,-6.635 4.26345,-8.745055 2.52936,-2.331965 6.54092,-4.250134 7.52689,-3.599043 0.87078,0.575059 4.86834,14.423579 4.66521,16.1615 -0.17752,1.518687 -1.77275,1.36299 -9.19747,-0.897664 z m 7.72783,-0.125949 c -0.15631,-0.427779 -0.28424,-0.980938 -0.28424,-1.229261 0,-0.248309 -0.39067,-0.45148 -0.86811,-0.45148 -0.47749,0 -1.42572,-0.542597 -2.10718,-1.205778 -1.50575,-1.465332 -1.62464,-3.555611 -0.30255,-5.320502 0.51509,-0.687604 0.93653,-1.605477 0.93653,-2.039712 0,-0.721257 -0.15181,-0.723027 -1.75599,-0.02046 -2.3208,1.016444 -4.71236,3.452344 -5.76745,5.874354 l -0.85341,1.959068 2.14279,0.656081 c 1.5202,0.465459 2.28815,0.503423 2.64319,0.13066 0.7126,-0.7483 1.15759,-0.651091 1.3323,0.291033 0.0852,0.459219 0.97094,1.082076 2.02444,1.423537 2.64624,0.857703 3.19308,0.844781 2.85968,-0.0676 z m -8.2447,-4.079041 c 0,-0.619794 1.37458,-1.730934 1.70808,-1.38073 0.47955,0.503531 -0.2361,1.812232 -0.99098,1.812232 -0.39438,0 -0.7171,-0.194183 -0.7171,-0.431502 z m -3.35694,-0.524949 c 0.69755,-2.101131 4.04786,-5.714773 6.41291,-6.916991 1.37604,-0.699479 1.95879,-1.269345 1.78479,-1.745419 -0.37031,-1.013263 -1.02161,-0.882628 -3.72901,0.74793 -2.59181,1.560949 -4.92601,4.303449 -6.03513,7.090812 -0.88127,2.214748 -0.87637,2.27182 0.19496,2.27182 0.565,0 1.06652,-0.529562 1.37148,-1.448152 z m 10.63233,0.58767 c -0.17438,-0.473262 -0.43398,-1.468956 -0.5769,-2.212653 -0.28976,-1.507785 -0.83214,-1.754383 -1.26337,-0.57441 -0.45824,1.253926 -0.33303,2.050943 0.45164,2.874862 0.98537,1.03472 1.78361,0.984252 1.38863,-0.0878 z m 92.60437,5.305692 c -3.55931,-2.27886 -3.84804,-6.629753 -0.66643,-10.042456 1.03791,-1.113265 2.21596,-2.853866 2.61792,-3.867999 0.40195,-1.014132 0.93591,-1.843877 1.18653,-1.843877 0.25066,0 0.78457,0.829745 1.18653,1.843877 0.402,1.014133 1.58006,2.754734 2.61791,3.867999 1.36368,1.462711 1.95627,2.56564 2.13645,3.976512 0.46766,3.660844 -2.37769,7.025764 -5.94089,7.025764 -0.90141,0 -2.3135,-0.43192 -3.13802,-0.95982 z m 6.37985,-2.024533 c 2.21774,-2.328739 2.03305,-4.630125 -0.59629,-7.43069 -1.12041,-1.193358 -2.16173,-2.490371 -2.31411,-2.882251 -0.2256,-0.580222 -0.3791,-0.541958 -0.82676,0.206111 -0.30231,0.505242 -1.36817,1.804197 -2.36847,2.886573 -1.46543,1.585602 -1.81883,2.331208 -1.81883,3.837636 0,2.636711 2.16061,4.895545 4.68263,4.895545 1.3868,0 2.13242,-0.347972 3.24183,-1.512924 z m 93.32306,2.657372 c -0.83595,-0.352712 -2.91236,-4.795061 -2.91236,-6.230753 0,-0.651966 0.30914,-1.4548 0.68698,-1.784077 0.37785,-0.329278 1.42301,-2.226849 2.32254,-4.216826 1.78937,-3.958565 3.18189,-5.138917 6.06241,-5.138917 2.73006,0 5.62243,3.376313 6.90022,8.054766 0.87861,3.216844 -2.18969,7.103645 -7.01696,8.888745 -1.9947,0.73764 -4.83163,0.938131 -6.04283,0.427062 z m 5.65778,-1.85443 c 4.10535,-1.537641 6.74176,-4.554112 5.97386,-6.835038 -0.27712,-0.823201 -0.35218,-0.799127 -0.81192,0.26037 -0.95498,2.200867 -6.1776,5.244328 -9.08846,5.296266 -1.52565,0.02719 -1.97289,0.482712 -1.30435,1.328521 0.65927,0.834171 2.92795,0.812433 5.23087,-0.0501 z m -0.37555,-3.652058 c 2.90777,-1.394891 4.91676,-3.620909 4.91676,-5.447818 0,-1.859312 -1.08084,-4.213728 -2.12816,-4.63573 -1.33225,-0.536829 -3.71983,-0.328259 -4.72767,0.412999 -0.53724,0.395141 -1.4474,2.039698 -2.02252,3.654571 -0.57512,1.614878 -1.44675,3.317264 -1.93697,3.783081 -0.89012,0.845908 -1.16888,2.205873 -0.57906,2.825234 0.62219,0.653313 4.64849,0.285133 6.47762,-0.592337 z m -1.17065,-3.996873 c -0.51509,-0.540871 -0.93653,-1.391641 -0.93653,-1.890594 0,-1.99718 3.23387,-3.3676 4.58897,-1.944672 0.83974,0.881738 0.67805,3.080791 -0.29439,4.004908 -1.13802,1.081427 -2.21858,1.026838 -3.35805,-0.169642 z m 2.80957,-1.720953 c 0,-0.88899 -0.25155,-1.229251 -0.90885,-1.229251 -0.49992,0 -1.0454,0.231861 -1.21219,0.515248 -0.5016,0.852255 0.15518,1.943255 1.16986,1.943255 0.70244,0 0.95118,-0.321469 0.95118,-1.229252 z"
         id="path57" /></clipPath></defs><rect
     style="opacity:1;fill:#ff0000;fill-opacity:1;fill-rule:nonzero;stroke:none;stroke-width:1.28213;stroke-dasharray:5.1285, 1.28213;stroke-opacity:0"
     id="rect48"
     width="24.695736"
     height="25.931837"
     x="581.50793"
     y="34.001381"
     rx="10.950765"
     ry="8.5611029"
     clip-path="url(#clipPath57)"
     transform="matrix(0.44993282,0,0,0.42848568,-261.6395,-16.36846)" /></svg>
